<svg width="150.000000" height="44.000000" viewBox="0 0 150 44" fill="none" xmlns="http://www.w3.org/2000/svg" xmlns:xlink="http://www.w3.org/1999/xlink">
	<desc>
			Created with Pixso.
	</desc>
	<defs/>
	<rect id="bg" rx="5.000000" width="150.000000" height="44.000000" fill="#222222" fill-opacity="1.000000"/>
	<rect id="bg" x="0.500000" y="0.500000" rx="5.000000" width="149.000000" height="43.000000" stroke="#A6A6A6" stroke-opacity="1.000000" stroke-width="1.000000"/>
	<path id="App Store" d="M92 33.79Q93.24 34.16 94.63 34.16Q96.08 34.16 97.21 33.68Q98.32 33.21 98.93 32.37Q98.94 32.36 98.95 32.35Q99.18 32.04 99.32 31.69Q99.57 31.09 99.57 30.38Q99.57 29.47 99.16 28.83Q99.1 28.75 99.04 28.67Q98.51 27.98 97.51 27.54Q96.52 27.1 94.91 26.74Q93.4 26.4 92.77 26Q92.45 25.8 92.29 25.51Q92.14 25.23 92.14 24.87Q92.14 24.42 92.33 24.06Q92.51 23.73 92.85 23.49Q93.56 23 94.79 23Q95.8 23 96.49 23.26Q97.18 23.52 97.92 24.06Q98.17 24.2 98.32 24.26Q98.48 24.31 98.66 24.31Q98.75 24.31 98.84 24.28Q99.03 24.22 99.19 24.03Q99.27 23.92 99.33 23.8Q99.41 23.61 99.41 23.37Q99.41 23.09 99.31 22.9Q99.21 22.71 98.98 22.51Q98.78 22.34 98.57 22.2Q97.04 21.14 94.79 21.14Q93.38 21.14 92.26 21.64Q91.22 22.1 90.6 22.88Q90.55 22.95 90.5 23.02Q90.24 23.38 90.09 23.78Q89.87 24.36 89.87 25.01Q89.87 26.09 90.38 26.8Q90.88 27.5 91.87 27.95Q92.86 28.4 94.45 28.74Q95.98 29.08 96.63 29.45Q97.03 29.67 97.18 30.01Q97.29 30.23 97.29 30.5Q97.29 30.99 97.07 31.35Q96.9 31.64 96.59 31.85Q95.88 32.3 94.57 32.3Q93.55 32.3 92.7 32.05Q91.85 31.8 91.08 31.24Q90.67 30.99 90.34 30.99Q90.25 30.99 90.17 31.01Q89.97 31.07 89.81 31.27Q89.73 31.37 89.68 31.49Q89.59 31.69 89.59 31.93Q89.59 32.26 89.73 32.5Q89.83 32.67 90 32.79Q90.77 33.42 92 33.79ZM61.97 33.08Q61.97 32.84 61.87 32.61L56.88 21.94Q56.79 21.73 56.63 21.58Q56.52 21.47 56.38 21.39Q56.21 21.29 56.03 21.24Q55.86 21.2 55.67 21.2Q55.51 21.2 55.35 21.23Q55.15 21.28 54.96 21.39Q54.82 21.47 54.71 21.58Q54.56 21.73 54.47 21.94L49.5 32.61Q49.39 32.84 49.39 33.08Q49.39 33.23 49.44 33.38Q49.52 33.6 49.73 33.78Q49.96 33.97 50.22 34.03Q50.35 34.07 50.49 34.07Q50.7 34.07 50.88 33.99Q50.97 33.96 51.05 33.92L51.05 33.92Q51.3 33.76 51.44 33.44L52.52 31.02L58.86 31.02L59.94 33.44Q60.08 33.76 60.33 33.92L60.33 33.92Q60.49 34.01 60.66 34.04Q60.77 34.07 60.87 34.07Q61.09 34.07 61.28 34Q61.47 33.92 61.64 33.78Q61.84 33.61 61.92 33.39Q61.97 33.24 61.97 33.08ZM106.71 32.74Q106.5 32.46 105.97 32.43L105.48 32.39Q104.92 32.35 104.62 32.05Q104.26 31.7 104.26 30.97L104.26 26.88L105.79 26.88Q106.27 26.88 106.53 26.67Q106.6 26.62 106.64 26.55Q106.79 26.35 106.79 26.04Q106.79 25.72 106.64 25.52Q106.59 25.46 106.53 25.41Q106.27 25.19 105.79 25.19L104.26 25.19L104.26 23.54Q104.26 23.19 104.1 22.95Q104.04 22.85 103.95 22.77Q103.89 22.71 103.82 22.66Q103.54 22.48 103.14 22.48Q102.69 22.48 102.4 22.69Q102.35 22.73 102.31 22.77Q102.23 22.84 102.17 22.94Q102.01 23.18 102.01 23.54L102.01 25.19L101.11 25.19Q100.62 25.19 100.36 25.41Q100.3 25.46 100.25 25.51Q100.1 25.71 100.1 26.04Q100.1 26.36 100.25 26.56Q100.3 26.62 100.36 26.67Q100.62 26.88 101.11 26.88L102.01 26.88L102.01 30.81Q102.01 32.32 102.76 33.13Q103.52 33.94 105.03 34.05L105.51 34.08Q106.16 34.12 106.51 33.9Q106.68 33.79 106.77 33.64Q106.86 33.47 106.86 33.24Q106.86 32.93 106.71 32.74ZM58.07 29.23L53.31 29.23L55.69 23.88L58.07 29.23ZM70.05 25.26Q69.38 24.98 68.58 24.98Q67.67 24.98 66.94 25.35Q66.91 25.36 66.88 25.38Q66.47 25.6 66.17 25.92Q65.92 26.19 65.73 26.52L65.73 26.08Q65.73 25.72 65.57 25.47Q65.51 25.38 65.43 25.3Q65.37 25.25 65.31 25.21Q65.03 25.01 64.62 25.01Q64.2 25.01 63.93 25.21Q63.87 25.25 63.81 25.3Q63.75 25.37 63.7 25.44Q63.52 25.7 63.52 26.08L63.52 36.28Q63.52 36.58 63.65 36.81Q63.72 36.94 63.84 37.04Q63.91 37.1 63.98 37.15Q64.26 37.33 64.65 37.33Q65.1 37.33 65.39 37.11Q65.43 37.08 65.46 37.05Q65.55 36.97 65.62 36.88Q65.77 36.65 65.77 36.32L65.77 32.65Q65.92 32.91 66.12 33.14Q66.45 33.5 66.9 33.74Q66.94 33.77 66.98 33.79Q67.69 34.14 68.58 34.14Q69.51 34.14 70.26 33.78Q70.44 33.69 70.61 33.58Q70.82 33.45 71 33.3Q71.61 32.79 71.99 32Q72.48 30.97 72.48 29.6Q72.48 28.23 71.99 27.18Q71.6 26.35 70.96 25.81Q70.79 25.67 70.6 25.55Q70.34 25.38 70.05 25.26ZM80.87 25.26Q80.19 24.98 79.4 24.98Q78.48 24.98 77.76 25.35Q77.73 25.36 77.7 25.38Q77.29 25.6 76.99 25.92Q76.73 26.19 76.55 26.52L76.55 26.08Q76.55 25.72 76.39 25.47Q76.33 25.38 76.25 25.3Q76.19 25.25 76.13 25.21Q75.85 25.01 75.44 25.01Q75.02 25.01 74.74 25.21Q74.69 25.25 74.63 25.3Q74.57 25.37 74.51 25.44Q74.34 25.7 74.34 26.08L74.34 36.28Q74.34 36.58 74.47 36.81Q74.54 36.94 74.65 37.04Q74.72 37.1 74.8 37.15Q75.08 37.33 75.47 37.33Q75.92 37.33 76.21 37.11Q76.25 37.08 76.28 37.05Q76.37 36.97 76.44 36.88Q76.59 36.65 76.59 36.32L76.59 32.65Q76.74 32.91 76.94 33.14Q77.26 33.5 77.72 33.74Q77.76 33.77 77.8 33.79Q78.51 34.14 79.4 34.14Q80.32 34.14 81.08 33.78Q81.26 33.69 81.43 33.58Q81.63 33.45 81.82 33.3Q82.43 32.79 82.81 32Q83.3 30.97 83.3 29.6Q83.3 28.23 82.81 27.18Q82.42 26.35 81.78 25.81Q81.61 25.67 81.42 25.55Q81.16 25.38 80.87 25.26ZM109.68 33.58Q110.7 34.14 112.05 34.14Q113.4 34.14 114.42 33.58Q114.89 33.32 115.26 32.96Q115.69 32.54 115.98 31.98Q116.53 30.94 116.53 29.55Q116.53 28.16 115.98 27.13Q115.69 26.58 115.27 26.17Q114.9 25.8 114.42 25.54Q113.4 24.98 112.05 24.98Q110.7 24.98 109.68 25.54Q109.23 25.79 108.86 26.13Q108.42 26.56 108.11 27.13Q107.55 28.16 107.55 29.55Q107.55 30.94 108.11 31.98Q108.42 32.57 108.88 33Q109.24 33.34 109.68 33.58ZM132.35 31.65Q132.22 31.58 132.06 31.58Q131.81 31.58 131.27 31.87Q130.71 32.12 130.27 32.27Q129.83 32.41 129.25 32.41Q128.16 32.41 127.57 31.87Q127.55 31.85 127.53 31.83Q126.94 31.24 126.83 30L132.14 30Q132.44 30 132.6 29.85Q132.82 29.66 132.82 29.23Q132.82 27.93 132.33 26.98Q132.02 26.36 131.54 25.92Q131.28 25.68 130.97 25.5Q130.09 24.98 128.89 24.98Q127.91 24.98 127.08 25.34Q126.87 25.44 126.67 25.55Q126.29 25.78 125.98 26.07Q125.48 26.53 125.15 27.17Q124.62 28.22 124.62 29.57Q124.62 31.3 125.44 32.44Q125.63 32.69 125.85 32.92Q126.07 33.13 126.32 33.31Q127.47 34.14 129.22 34.14Q129.92 34.14 130.7 33.93Q131.47 33.73 132.08 33.38Q132.61 33.09 132.72 32.67Q132.75 32.57 132.75 32.45Q132.75 32.05 132.56 31.82Q132.47 31.71 132.35 31.65ZM124 25.18Q123.73 24.98 123.3 25.01L123.05 25.03Q122.54 25.06 122.09 25.24Q121.81 25.35 121.54 25.52Q121.34 25.65 121.17 25.81Q120.77 26.19 120.53 26.74L120.53 26.02Q120.53 25.63 120.34 25.39Q120.3 25.33 120.24 25.28Q120.19 25.23 120.14 25.2Q119.88 25.01 119.48 25.01Q119.15 25.01 118.89 25.15Q118.79 25.21 118.7 25.29Q118.63 25.35 118.57 25.42Q118.38 25.67 118.38 26.06L118.38 33.02Q118.38 33.44 118.59 33.7Q118.64 33.77 118.7 33.83Q118.77 33.89 118.85 33.94Q119.13 34.1 119.5 34.1Q119.88 34.1 120.16 33.94Q120.24 33.89 120.31 33.83Q120.38 33.76 120.44 33.69Q120.63 33.43 120.63 33.02L120.63 29.24Q120.63 28.48 120.97 27.93Q121.05 27.82 121.13 27.72Q121.16 27.68 121.19 27.64Q121.69 27.09 122.69 26.99L123.23 26.94Q123.84 26.87 124.07 26.63Q124.31 26.4 124.31 25.91Q124.31 25.51 124.11 25.28Q124.08 25.24 124.04 25.21Q124.02 25.19 124 25.18ZM127.81 26.86Q128.29 26.56 128.95 26.56Q129.63 26.56 130.08 26.88Q130.23 26.98 130.35 27.13Q130.86 27.69 130.89 28.79L126.83 28.79Q126.94 27.71 127.48 27.14Q127.64 26.98 127.81 26.86ZM113.35 32.01Q112.83 32.39 112.03 32.39Q111.26 32.39 110.75 32.03Q110.54 31.88 110.38 31.67Q109.8 30.95 109.8 29.55Q109.8 28.16 110.39 27.43Q110.57 27.21 110.8 27.05Q111.31 26.7 112.05 26.7Q112.79 26.7 113.3 27.05Q113.52 27.21 113.7 27.43Q114.28 28.16 114.28 29.55Q114.28 30.95 113.7 31.67Q113.55 31.87 113.35 32.01ZM69.2 32.07Q68.7 32.39 67.98 32.39Q67.25 32.39 66.74 32.05Q66.5 31.89 66.32 31.66Q65.73 30.92 65.73 29.57Q65.73 28.2 66.32 27.46Q66.51 27.22 66.75 27.06Q67.25 26.72 67.98 26.72Q68.66 26.72 69.14 27.02Q69.42 27.2 69.64 27.48Q70.23 28.23 70.23 29.6Q70.23 30.94 69.64 31.67Q69.45 31.91 69.2 32.07ZM80.02 32.07Q79.51 32.39 78.8 32.39Q78.06 32.39 77.56 32.05Q77.32 31.89 77.14 31.66Q76.55 30.92 76.55 29.57Q76.55 28.2 77.14 27.46Q77.33 27.22 77.57 27.06Q78.07 26.72 78.8 26.72Q79.47 26.72 79.96 27.02Q80.24 27.2 80.46 27.48Q81.05 28.23 81.05 29.6Q81.05 30.94 80.46 31.67Q80.26 31.91 80.02 32.07Z" fill="#FFFFFF" fill-opacity="1.000000" fill-rule="evenodd"/>
	<path id="Download on the" d="M77.53 15.96Q77.68 16.06 77.88 16.06Q78.1 16.06 78.25 15.96Q78.29 15.94 78.33 15.9Q78.38 15.87 78.41 15.82Q78.51 15.68 78.51 15.46L78.51 9.49Q78.51 9.26 78.4 9.12Q78.37 9.08 78.33 9.05Q78.3 9.02 78.26 8.99Q78.1 8.9 77.88 8.9Q77.67 8.9 77.52 8.99Q77.48 9.02 77.44 9.05Q77.41 9.08 77.38 9.11Q77.26 9.25 77.26 9.49L77.26 15.46Q77.26 15.69 77.38 15.83Q77.4 15.87 77.44 15.9Q77.48 15.94 77.53 15.96ZM95.41 8.99Q95.25 8.9 95.03 8.9Q94.8 8.9 94.64 9.01Q94.62 9.03 94.59 9.05Q94.53 9.1 94.5 9.17Q94.43 9.29 94.43 9.45L94.43 11.83Q94.33 11.65 94.19 11.5Q94.02 11.33 93.79 11.21Q93.39 10.99 92.85 10.99Q92.34 10.99 91.92 11.19Q91.82 11.23 91.72 11.3Q91.63 11.36 91.54 11.43Q91.18 11.72 90.96 12.18Q90.69 12.75 90.69 13.5Q90.69 14.26 90.96 14.85Q91.18 15.33 91.55 15.63Q91.64 15.7 91.73 15.76Q91.88 15.85 92.03 15.92Q92.41 16.08 92.85 16.08Q93.35 16.08 93.75 15.87Q93.78 15.86 93.8 15.85Q94.04 15.71 94.21 15.52Q94.34 15.38 94.44 15.2L94.44 15.46Q94.44 15.65 94.52 15.79Q94.56 15.84 94.6 15.89Q94.63 15.91 94.67 15.94Q94.82 16.04 95.06 16.04Q95.28 16.04 95.44 15.94Q95.47 15.91 95.51 15.89Q95.56 15.84 95.59 15.78Q95.68 15.65 95.68 15.46L95.68 9.47Q95.68 9.32 95.61 9.2Q95.57 9.12 95.5 9.06Q95.46 9.02 95.41 8.99ZM121.68 11.34Q121.26 10.99 120.54 10.99Q120.01 10.99 119.59 11.19Q119.39 11.29 119.23 11.43Q119.05 11.59 118.92 11.79L118.92 9.45Q118.92 9.28 118.84 9.15Q118.81 9.09 118.75 9.05Q118.74 9.03 118.71 9.01Q118.55 8.9 118.3 8.9Q118.09 8.9 117.93 8.99Q117.89 9.02 117.85 9.06Q117.79 9.11 117.75 9.19Q117.67 9.31 117.67 9.47L117.67 15.46Q117.67 15.69 117.78 15.83Q117.81 15.87 117.84 15.9Q117.86 15.91 117.88 15.93Q118.04 16.06 118.3 16.06Q118.55 16.06 118.71 15.93Q118.73 15.92 118.75 15.9Q118.79 15.86 118.82 15.82Q118.92 15.67 118.92 15.46L118.92 13.22Q118.92 12.75 119.15 12.44Q119.19 12.37 119.25 12.32Q119.34 12.22 119.45 12.15Q119.73 11.97 120.12 11.97Q120.54 11.97 120.76 12.19Q120.78 12.2 120.79 12.22Q121 12.46 121 12.99L121 15.46Q121 15.68 121.11 15.82Q121.14 15.86 121.17 15.9Q121.19 15.92 121.22 15.93Q121.38 16.06 121.63 16.06Q121.89 16.06 122.05 15.93Q122.07 15.91 122.09 15.9Q122.12 15.87 122.15 15.83Q122.25 15.68 122.25 15.46L122.25 12.99Q122.25 11.83 121.68 11.34ZM49.96 15.87Q50.12 16 50.37 16L52.35 16Q53.95 16 54.88 15.21Q54.96 15.14 55.04 15.07Q55.18 14.94 55.3 14.79Q55.99 13.9 55.99 12.46Q55.99 11.05 55.31 10.17Q55.18 10.01 55.04 9.87Q54.96 9.8 54.88 9.73Q53.95 8.94 52.35 8.94L50.37 8.94Q50.12 8.94 49.96 9.07Q49.94 9.08 49.92 9.11Q49.9 9.13 49.88 9.15Q49.75 9.3 49.75 9.55L49.75 15.38Q49.75 15.64 49.88 15.79Q49.9 15.81 49.92 15.84Q49.94 15.85 49.96 15.87ZM116.94 15.3Q116.82 15.14 116.53 15.13L116.26 15.1Q115.95 15.08 115.78 14.92Q115.58 14.72 115.58 14.32L115.58 12.04L116.43 12.04Q116.69 12.04 116.84 11.93Q116.88 11.9 116.9 11.86Q116.99 11.75 116.99 11.58Q116.99 11.4 116.9 11.29Q116.87 11.25 116.84 11.22Q116.69 11.1 116.43 11.1L115.58 11.1L115.58 10.18Q115.58 9.99 115.49 9.86Q115.45 9.8 115.41 9.76Q115.37 9.72 115.33 9.7Q115.18 9.6 114.96 9.6Q114.71 9.6 114.54 9.72Q114.52 9.74 114.5 9.76Q114.45 9.8 114.42 9.85Q114.33 9.99 114.33 10.18L114.33 11.1L113.83 11.1Q113.56 11.1 113.41 11.22Q113.38 11.25 113.35 11.28Q113.26 11.4 113.26 11.58Q113.26 11.75 113.35 11.86Q113.38 11.9 113.41 11.93Q113.56 12.04 113.83 12.04L114.33 12.04L114.33 14.23Q114.33 15.06 114.74 15.51Q115.16 15.96 116.01 16.02L116.27 16.04Q116.64 16.07 116.83 15.94Q116.92 15.88 116.97 15.8Q117.02 15.7 117.02 15.58Q117.02 15.4 116.94 15.3ZM54.07 14.35Q53.47 14.95 52.27 14.95L51.05 14.95L51.05 9.99L52.27 9.99Q53.47 9.99 54.08 10.59Q54.71 11.21 54.71 12.46Q54.71 13.73 54.07 14.35ZM58.1 15.77Q58.66 16.08 59.42 16.08Q60.17 16.08 60.73 15.77Q60.99 15.62 61.2 15.42Q61.44 15.19 61.6 14.88Q61.91 14.3 61.91 13.52Q61.91 12.76 61.6 12.18Q61.44 11.88 61.2 11.65Q61 11.44 60.73 11.3Q60.17 10.99 59.42 10.99Q58.66 10.99 58.1 11.3Q57.85 11.43 57.65 11.63Q57.4 11.86 57.23 12.18Q56.92 12.76 56.92 13.52Q56.92 14.3 57.23 14.88Q57.4 15.2 57.65 15.44Q57.85 15.63 58.1 15.77ZM75.45 11.37Q75.02 10.99 74.26 10.99Q73.73 10.99 73.32 11.2Q73.31 11.2 73.3 11.21Q73.11 11.31 72.96 11.45Q72.77 11.61 72.64 11.83L72.64 11.56Q72.64 11.4 72.57 11.28Q72.53 11.22 72.47 11.16Q72.43 11.12 72.38 11.09Q72.24 11 72.04 11Q71.8 11 71.64 11.12Q71.61 11.14 71.59 11.17Q71.53 11.22 71.49 11.28Q71.41 11.41 71.41 11.59L71.41 15.46Q71.41 15.69 71.52 15.83Q71.55 15.87 71.58 15.9Q71.6 15.91 71.62 15.93Q71.78 16.06 72.03 16.06Q72.29 16.06 72.45 15.93Q72.47 15.92 72.49 15.9Q72.53 15.86 72.56 15.82Q72.66 15.67 72.66 15.46L72.66 13.22Q72.66 12.75 72.89 12.44Q72.93 12.37 72.99 12.32Q73.08 12.22 73.19 12.15Q73.47 11.97 73.86 11.97Q74.26 11.97 74.47 12.17Q74.5 12.2 74.53 12.24Q74.74 12.49 74.74 13.07L74.74 15.46Q74.74 15.68 74.85 15.82Q74.88 15.86 74.91 15.9Q74.93 15.92 74.96 15.93Q75.12 16.06 75.37 16.06Q75.63 16.06 75.79 15.93Q75.81 15.91 75.83 15.9Q75.86 15.87 75.89 15.83Q75.99 15.68 75.99 15.46L75.99 12.99Q75.99 11.99 75.56 11.49Q75.51 11.42 75.45 11.37ZM80.72 15.77Q81.28 16.08 82.04 16.08Q82.79 16.08 83.35 15.77Q83.61 15.62 83.82 15.42Q84.06 15.19 84.22 14.88Q84.53 14.3 84.53 13.52Q84.53 12.76 84.22 12.18Q84.06 11.88 83.82 11.65Q83.62 11.44 83.35 11.3Q82.79 10.99 82.04 10.99Q81.28 10.99 80.72 11.3Q80.47 11.43 80.27 11.63Q80.02 11.86 79.85 12.18Q79.54 12.76 79.54 13.52Q79.54 14.3 79.85 14.88Q80.02 15.2 80.27 15.44Q80.47 15.63 80.72 15.77ZM89.19 11.49Q88.69 10.99 87.68 10.99Q87.2 10.99 86.72 11.1Q86.24 11.21 85.88 11.4Q85.68 11.51 85.6 11.63Q85.59 11.65 85.58 11.66Q85.52 11.78 85.52 11.93Q85.52 12.11 85.6 12.23Q85.61 12.25 85.63 12.26Q85.68 12.32 85.74 12.35Q85.82 12.39 85.93 12.39Q86.05 12.39 86.3 12.26Q86.71 12.11 87.01 12.02Q87.31 11.93 87.61 11.93Q88.07 11.93 88.28 12.16Q88.49 12.38 88.49 12.87L88.49 13.1L88.24 13.1Q87.16 13.1 86.54 13.25Q85.92 13.39 85.64 13.7Q85.63 13.71 85.62 13.72Q85.36 14.03 85.36 14.54Q85.36 14.79 85.44 15.01Q85.5 15.18 85.59 15.33Q85.65 15.42 85.72 15.49Q85.93 15.73 86.23 15.88Q86.27 15.9 86.31 15.91Q86.68 16.08 87.11 16.08Q87.55 16.08 87.89 15.89Q87.93 15.88 87.96 15.86Q88.15 15.74 88.28 15.59Q88.41 15.44 88.49 15.25L88.49 15.47Q88.49 15.64 88.57 15.77Q88.61 15.83 88.66 15.89Q88.71 15.93 88.76 15.96Q88.9 16.04 89.08 16.04Q89.33 16.04 89.49 15.92Q89.51 15.91 89.52 15.89Q89.56 15.86 89.58 15.82Q89.69 15.68 89.69 15.47L89.69 13.02Q89.69 12 89.19 11.49ZM100.59 15.77Q101.15 16.08 101.91 16.08Q102.66 16.08 103.22 15.77Q103.48 15.62 103.69 15.42Q103.93 15.19 104.09 14.88Q104.4 14.3 104.4 13.52Q104.4 12.76 104.09 12.18Q103.93 11.88 103.7 11.65Q103.49 11.44 103.22 11.3Q102.66 10.99 101.91 10.99Q101.15 10.99 100.59 11.3Q100.34 11.43 100.14 11.63Q99.89 11.86 99.72 12.18Q99.41 12.76 99.41 13.52Q99.41 14.3 99.72 14.88Q99.89 15.2 100.14 15.44Q100.34 15.63 100.59 15.77ZM109.46 11.37Q109.03 10.99 108.27 10.99Q107.74 10.99 107.33 11.2Q107.32 11.2 107.31 11.21Q107.12 11.31 106.97 11.45Q106.78 11.61 106.65 11.83L106.65 11.56Q106.65 11.4 106.58 11.28Q106.54 11.22 106.48 11.16Q106.44 11.12 106.39 11.09Q106.25 11 106.05 11Q105.81 11 105.65 11.12Q105.62 11.14 105.6 11.17Q105.54 11.22 105.5 11.28Q105.42 11.41 105.42 11.59L105.42 15.46Q105.42 15.69 105.53 15.83Q105.56 15.87 105.59 15.9Q105.61 15.91 105.63 15.93Q105.79 16.06 106.05 16.06Q106.3 16.06 106.46 15.93Q106.48 15.92 106.5 15.9Q106.54 15.86 106.57 15.82Q106.67 15.67 106.67 15.46L106.67 13.22Q106.67 12.75 106.9 12.44Q106.94 12.37 107 12.32Q107.09 12.22 107.2 12.15Q107.48 11.97 107.87 11.97Q108.27 11.97 108.48 12.17Q108.51 12.2 108.54 12.24Q108.75 12.49 108.75 13.07L108.75 15.46Q108.75 15.68 108.86 15.82Q108.89 15.86 108.92 15.9Q108.94 15.92 108.97 15.93Q109.13 16.06 109.38 16.06Q109.64 16.06 109.8 15.93Q109.82 15.91 109.84 15.9Q109.87 15.87 109.9 15.83Q110 15.68 110 15.46L110 12.99Q110 11.99 109.58 11.49Q109.52 11.42 109.46 11.37ZM127.55 14.69Q127.48 14.65 127.39 14.65Q127.26 14.65 126.96 14.82Q126.65 14.96 126.4 15.04Q126.15 15.12 125.83 15.12Q125.23 15.12 124.9 14.81Q124.89 14.8 124.88 14.79Q124.55 14.46 124.48 13.78L127.44 13.78Q127.6 13.78 127.69 13.69Q127.81 13.59 127.81 13.35Q127.81 12.63 127.54 12.1Q127.37 11.75 127.1 11.51Q126.96 11.38 126.78 11.28Q126.3 10.99 125.63 10.99Q125.09 10.99 124.63 11.19Q124.51 11.24 124.4 11.31Q124.19 11.43 124.01 11.59Q123.74 11.85 123.55 12.21Q123.26 12.78 123.26 13.53Q123.26 14.5 123.72 15.13Q123.82 15.27 123.94 15.4Q124.07 15.52 124.2 15.62Q124.84 16.08 125.81 16.08Q126.21 16.08 126.64 15.96Q127.06 15.85 127.4 15.66Q127.7 15.49 127.76 15.26Q127.78 15.2 127.78 15.14Q127.78 14.92 127.67 14.79Q127.62 14.72 127.55 14.69ZM69.65 11.12Q69.53 11.21 69.47 11.38L68.29 14.43L67.08 11.4Q67 11.23 66.88 11.13Q66.86 11.12 66.84 11.11Q66.78 11.07 66.71 11.05Q66.62 11.01 66.51 11.01Q66.43 11.01 66.35 11.04Q66.26 11.06 66.18 11.11Q66.17 11.12 66.16 11.13Q66.03 11.22 65.96 11.4L64.74 14.42L63.56 11.37Q63.5 11.2 63.38 11.12Q63.37 11.1 63.35 11.1Q63.3 11.06 63.24 11.04Q63.15 11 63.04 11Q62.97 11 62.9 11.02Q62.74 11.06 62.61 11.17Q62.47 11.28 62.43 11.42Q62.41 11.49 62.41 11.56Q62.41 11.65 62.45 11.79L64.09 15.66Q64.15 15.78 64.23 15.86Q64.28 15.91 64.34 15.95Q64.45 16.01 64.56 16.03Q64.63 16.04 64.71 16.04Q64.84 16.04 64.96 16Q65.02 15.98 65.07 15.95Q65.12 15.91 65.17 15.87Q65.26 15.78 65.32 15.66L66.47 12.79L67.65 15.66Q67.71 15.79 67.81 15.88Q67.85 15.92 67.9 15.95Q67.99 16 68.09 16.02Q68.17 16.04 68.25 16.04Q68.39 16.04 68.51 16Q68.57 15.98 68.62 15.95Q68.67 15.91 68.72 15.87Q68.81 15.78 68.87 15.66L70.52 11.79Q70.56 11.69 70.56 11.55Q70.56 11.45 70.53 11.37Q70.48 11.26 70.38 11.17Q70.27 11.08 70.15 11.04Q70.06 11.01 69.96 11.01Q69.9 11.01 69.84 11.03Q69.75 11.05 69.67 11.1Q69.66 11.11 69.65 11.12ZM125.03 12.03Q125.3 11.86 125.67 11.86Q126.04 11.86 126.29 12.04Q126.37 12.1 126.44 12.18Q126.73 12.49 126.75 13.1L124.48 13.1Q124.55 12.5 124.85 12.18Q124.93 12.1 125.03 12.03ZM60.14 14.89Q59.85 15.1 59.41 15.1Q58.98 15.1 58.69 14.9Q58.58 14.82 58.49 14.71Q58.17 14.31 58.17 13.52Q58.17 12.76 58.49 12.35Q58.59 12.22 58.72 12.14Q59 11.94 59.42 11.94Q59.83 11.94 60.11 12.14Q60.23 12.22 60.33 12.35Q60.66 12.76 60.66 13.52Q60.66 14.31 60.33 14.71Q60.25 14.82 60.14 14.89ZM82.76 14.89Q82.47 15.1 82.03 15.1Q81.6 15.1 81.31 14.9Q81.2 14.82 81.11 14.71Q80.79 14.31 80.79 13.52Q80.79 12.76 81.11 12.35Q81.21 12.22 81.34 12.14Q81.62 11.94 82.04 11.94Q82.45 11.94 82.73 12.14Q82.85 12.22 82.95 12.35Q83.28 12.76 83.28 13.52Q83.28 14.31 82.95 14.71Q82.87 14.82 82.76 14.89ZM102.63 14.89Q102.34 15.1 101.9 15.1Q101.47 15.1 101.18 14.9Q101.07 14.82 100.98 14.71Q100.66 14.31 100.66 13.52Q100.66 12.76 100.98 12.35Q101.08 12.22 101.21 12.14Q101.49 11.94 101.91 11.94Q102.32 11.94 102.6 12.14Q102.72 12.22 102.82 12.35Q103.15 12.76 103.15 13.52Q103.15 14.31 102.82 14.71Q102.74 14.82 102.63 14.89ZM93.87 14.92Q93.59 15.1 93.19 15.1Q92.81 15.1 92.54 14.94Q92.39 14.84 92.27 14.68Q91.94 14.26 91.94 13.5Q91.94 12.76 92.27 12.35Q92.37 12.23 92.49 12.15Q92.78 11.95 93.2 11.95Q93.59 11.95 93.86 12.13Q94 12.22 94.11 12.36Q94.44 12.77 94.44 13.52Q94.44 14.29 94.11 14.7Q94 14.83 93.87 14.92ZM87.92 15.04Q87.68 15.17 87.37 15.17Q87.15 15.17 86.97 15.08Q86.88 15.04 86.81 14.97Q86.71 14.88 86.66 14.78Q86.58 14.63 86.58 14.44Q86.58 14.25 86.68 14.11Q86.71 14.07 86.74 14.04Q86.9 13.89 87.27 13.83Q87.64 13.77 88.32 13.77L88.49 13.77L88.49 13.98Q88.49 14.38 88.32 14.66Q88.26 14.76 88.18 14.84Q88.06 14.96 87.92 15.04Z" fill="#FFFFFF" fill-opacity="1.000000" fill-rule="evenodd"/>
	<path id="Vector" d="M35.04 22.89C35.01 19.35 38.09 17.63 38.23 17.55C36.49 15.13 33.78 14.8 32.83 14.77C30.55 14.55 28.35 16.06 27.19 16.06C26.01 16.06 24.22 14.79 22.3 14.83C19.82 14.87 17.51 16.23 16.24 18.34C13.62 22.64 15.57 28.97 18.08 32.45C19.34 34.16 20.81 36.06 22.73 35.99C24.61 35.92 25.31 34.86 27.58 34.86C29.82 34.86 30.48 35.99 32.44 35.95C34.46 35.92 35.73 34.24 36.94 32.52C38.39 30.56 38.97 28.64 39 28.54C38.95 28.53 35.08 27.13 35.04 22.89L35.04 22.89ZM31.34 12.48C32.35 11.28 33.04 9.65 32.85 8C31.39 8.06 29.56 8.96 28.51 10.13C27.57 11.16 26.74 12.86 26.96 14.45C28.6 14.57 30.29 13.66 31.34 12.48L31.34 12.48Z" fill="#FFFFFF" fill-opacity="1.000000" fill-rule="nonzero"/>
</svg>
