<svg width="130.000000" height="46.000000" viewBox="0 0 130 46" fill="none" xmlns="http://www.w3.org/2000/svg" xmlns:xlink="http://www.w3.org/1999/xlink">
	<desc>
			Created with Pixso.
	</desc>
	<defs/>
	<path d="M53.01 0L65.38 29.39L14.7 46L0 3.19L53.01 0ZM33.25 15.32C29.95 17.05 28.25 20.02 28.52 24C28.78 27.92 30.83 30.43 34.25 31.76C37.01 32.83 39.83 32.97 42.7 32.54C43.48 32.42 44.24 32.19 44.97 32L45.4 31.89L45.4 27.65C43.41 27.85 41.6 28.26 39.81 28.17C37.21 28.04 35.5 26.09 35.37 23.59C35.18 19.96 37.75 17.74 41.53 18.38C42.53 18.54 43.5 18.89 44.53 19.21L44.98 19.34L44.98 14.59C40.92 13.35 36.99 13.37 33.25 15.32ZM76.16 25.78C76.49 25.78 76.81 25.83 77.11 25.93C77.42 26.03 77.68 26.23 77.91 26.53L77.24 27.18C77.14 27.01 76.99 26.87 76.81 26.77C76.62 26.66 76.4 26.61 76.16 26.61C75.93 26.61 75.74 26.64 75.59 26.71C75.44 26.77 75.31 26.85 75.22 26.95C75.13 27.05 75.07 27.16 75.03 27.28C74.99 27.4 74.97 27.5 74.97 27.6C74.97 27.88 75.05 28.09 75.2 28.23C75.35 28.38 75.53 28.5 75.75 28.59C75.97 28.68 76.21 28.76 76.47 28.84C76.73 28.91 76.98 29.02 77.2 29.15C77.42 29.28 77.6 29.46 77.75 29.68C77.9 29.9 77.97 30.21 77.97 30.6C77.97 30.91 77.92 31.19 77.81 31.44C77.69 31.69 77.54 31.91 77.36 32.08C77.17 32.25 76.94 32.38 76.68 32.47C76.43 32.56 76.15 32.61 75.86 32.61C75.47 32.61 75.1 32.54 74.75 32.39C74.4 32.24 74.12 32.02 73.92 31.71L74.6 31.09C74.74 31.33 74.93 31.5 75.17 31.61C75.4 31.73 75.64 31.78 75.88 31.78C76.02 31.78 76.16 31.76 76.31 31.71C76.45 31.67 76.58 31.6 76.7 31.51C76.81 31.42 76.91 31.3 76.99 31.17C77.06 31.03 77.1 30.88 77.1 30.7C77.1 30.45 77.02 30.26 76.87 30.13C76.73 30 76.54 29.89 76.32 29.8C76.1 29.71 75.86 29.62 75.6 29.54C75.34 29.46 75.09 29.34 74.87 29.2C74.65 29.05 74.47 28.85 74.32 28.61C74.17 28.36 74.1 28.02 74.1 27.6C74.1 27.41 74.13 27.21 74.21 27C74.29 26.78 74.41 26.59 74.58 26.41C74.74 26.23 74.96 26.08 75.22 25.96C75.48 25.84 75.79 25.78 76.16 25.78ZM120.05 27.99C120.41 27.99 120.72 28.05 120.97 28.19C121.22 28.32 121.42 28.5 121.58 28.71C121.74 28.93 121.86 29.18 121.93 29.45C122 29.72 122.04 30 122.04 30.28L122.04 30.57L118.77 30.57C118.77 30.76 118.81 30.94 118.89 31.09C118.96 31.25 119.07 31.38 119.19 31.49C119.32 31.6 119.47 31.69 119.63 31.75C119.8 31.81 119.97 31.84 120.15 31.84C120.39 31.84 120.6 31.78 120.78 31.66C120.95 31.54 121.12 31.38 121.27 31.19L121.85 31.66C121.42 32.26 120.82 32.55 120.04 32.55C119.72 32.55 119.43 32.5 119.17 32.38C118.91 32.26 118.69 32.1 118.51 31.9C118.33 31.69 118.19 31.45 118.09 31.17C118 30.9 117.95 30.59 117.95 30.27C117.95 29.95 118 29.65 118.1 29.37C118.21 29.09 118.36 28.85 118.54 28.64C118.73 28.44 118.95 28.28 119.21 28.16C119.47 28.04 119.75 27.99 120.05 27.99ZM110.97 27.99C111.33 27.99 111.64 28.05 111.89 28.19C112.14 28.32 112.34 28.5 112.5 28.71C112.66 28.93 112.78 29.18 112.85 29.45C112.92 29.72 112.96 30 112.96 30.28L112.96 30.57L109.69 30.57C109.69 30.76 109.73 30.94 109.81 31.09C109.88 31.25 109.99 31.38 110.11 31.49C110.24 31.6 110.38 31.69 110.55 31.75C110.72 31.81 110.89 31.84 111.07 31.84C111.31 31.84 111.52 31.78 111.69 31.66C111.87 31.54 112.04 31.38 112.18 31.19L112.77 31.66C112.34 32.26 111.74 32.55 110.96 32.55C110.64 32.55 110.35 32.5 110.09 32.38C109.83 32.26 109.61 32.1 109.43 31.9C109.25 31.69 109.11 31.45 109.01 31.17C108.91 30.9 108.86 30.59 108.86 30.27C108.86 29.95 108.92 29.65 109.02 29.37C109.13 29.09 109.28 28.85 109.46 28.64C109.65 28.44 109.87 28.28 110.13 28.16C110.39 28.04 110.67 27.99 110.97 27.99ZM99.34 27.99C99.7 27.99 100 28.05 100.25 28.19C100.5 28.32 100.71 28.5 100.87 28.71C101.03 28.93 101.14 29.18 101.22 29.45C101.29 29.72 101.32 30 101.32 30.28L101.32 30.57L98.05 30.57C98.05 30.76 98.09 30.94 98.17 31.09C98.25 31.25 98.35 31.38 98.48 31.49C98.6 31.6 98.75 31.69 98.91 31.75C99.08 31.81 99.25 31.84 99.43 31.84C99.67 31.84 99.88 31.78 100.06 31.66C100.24 31.54 100.4 31.38 100.55 31.19L101.13 31.66C100.7 32.26 100.1 32.55 99.33 32.55C99.01 32.55 98.72 32.5 98.45 32.38C98.19 32.26 97.97 32.1 97.79 31.9C97.61 31.69 97.47 31.45 97.37 31.17C97.28 30.9 97.23 30.59 97.23 30.27C97.23 29.95 97.28 29.65 97.39 29.37C97.49 29.09 97.64 28.85 97.83 28.64C98.01 28.44 98.23 28.28 98.49 28.16C98.75 28.04 99.03 27.99 99.34 27.99L99.34 27.99ZM95.26 27.99C95.56 27.99 95.84 28.05 96.12 28.16C96.39 28.28 96.62 28.45 96.83 28.68L96.24 29.25C96.1 29.09 95.95 28.97 95.79 28.89C95.63 28.81 95.44 28.77 95.23 28.77C95.01 28.77 94.83 28.81 94.67 28.89C94.51 28.97 94.38 29.09 94.27 29.23C94.17 29.37 94.09 29.54 94.03 29.72C93.98 29.91 93.95 30.1 93.95 30.31C93.95 30.51 93.98 30.7 94.05 30.88C94.11 31.06 94.2 31.22 94.31 31.35C94.43 31.49 94.57 31.59 94.73 31.67C94.89 31.75 95.07 31.78 95.27 31.78C95.49 31.78 95.67 31.74 95.83 31.66C95.98 31.58 96.13 31.46 96.26 31.3L96.81 31.88C96.61 32.12 96.37 32.29 96.11 32.4C95.84 32.5 95.56 32.55 95.26 32.55C94.94 32.55 94.66 32.5 94.4 32.39C94.13 32.28 93.91 32.12 93.72 31.93C93.53 31.73 93.38 31.49 93.28 31.21C93.18 30.93 93.13 30.62 93.13 30.29C93.13 29.95 93.18 29.64 93.28 29.36C93.39 29.08 93.53 28.84 93.72 28.64C93.9 28.44 94.13 28.28 94.39 28.16C94.65 28.05 94.94 27.99 95.26 27.99ZM80.86 27.99C81.22 27.99 81.53 28.05 81.78 28.19C82.03 28.32 82.23 28.5 82.39 28.71C82.55 28.93 82.67 29.18 82.74 29.45C82.81 29.72 82.85 30 82.85 30.28L82.85 30.57L79.58 30.57C79.58 30.76 79.62 30.94 79.7 31.09C79.78 31.25 79.88 31.38 80 31.49C80.13 31.6 80.28 31.69 80.44 31.75C80.61 31.81 80.78 31.84 80.96 31.84C81.2 31.84 81.41 31.78 81.59 31.66C81.76 31.54 81.93 31.38 82.08 31.19L82.66 31.66C82.23 32.26 81.63 32.55 80.86 32.55C80.53 32.55 80.24 32.5 79.98 32.38C79.72 32.26 79.5 32.1 79.32 31.9C79.14 31.69 79 31.45 78.9 31.17C78.81 30.9 78.76 30.59 78.76 30.27C78.76 29.95 78.81 29.65 78.92 29.37C79.02 29.09 79.17 28.85 79.35 28.64C79.54 28.44 79.76 28.28 80.02 28.16C80.28 28.04 80.56 27.99 80.86 27.99ZM11.69 14.38L10.46 14.38L10.46 32.5L16.86 32.5L16.86 27.11L18.02 27.07C19.52 27.01 20.81 26.91 21.89 26.56C23.44 26.05 24.5 25.41 25.67 24.28C28.33 21.73 27.67 17.33 24.52 15.55C23.49 14.97 22.29 14.48 21.15 14.43C19.21 14.35 17.27 14.35 15.29 14.36L11.69 14.38ZM114.29 28.1L115.51 31.43L116.68 28.1L117.51 28.1L115.91 32.44L115.06 32.44L113.4 28.1L114.29 28.1L114.29 28.1ZM87.37 28.1L88.59 31.43L89.76 28.1L90.58 28.1L88.98 32.44L88.13 32.44L86.47 28.1L87.37 28.1L87.37 28.1ZM85.79 27.99C85.92 27.99 86.03 28 86.14 28.04L86.1 28.93C86.04 28.91 85.98 28.9 85.91 28.88C85.85 28.87 85.79 28.87 85.72 28.87C85.35 28.87 85.06 28.98 84.85 29.21C84.66 29.43 84.55 29.78 84.55 30.26L84.55 32.44L83.78 32.44L83.78 28.1L84.55 28.1L84.55 28.77L84.57 28.77C84.62 28.65 84.69 28.54 84.78 28.45C84.86 28.35 84.96 28.27 85.07 28.21C85.17 28.14 85.29 28.08 85.41 28.05C85.54 28.01 85.67 27.99 85.79 27.99ZM123.8 25.51L123.8 32.44L123.03 32.44L123.03 25.51L123.8 25.51ZM105.67 25.95L105.67 31.62L108.46 31.62L108.46 32.44L104.84 32.44L104.84 25.95L105.67 25.95ZM92.1 28.1L92.1 32.44L91.32 32.44L91.32 28.1L92.1 28.1ZM129.99 25.95L129.99 32.44L129.16 32.44L129.16 26.96L128.04 28.06L127.56 27.44L129.26 25.95L129.99 25.95ZM54.76 14.26L48.26 14.26L48.26 32.38L54.76 32.38L54.76 14.26ZM80.85 28.65C80.66 28.65 80.48 28.68 80.33 28.76C80.17 28.84 80.04 28.94 79.93 29.06C79.82 29.18 79.73 29.32 79.67 29.47C79.61 29.62 79.58 29.77 79.58 29.91L82.03 29.91C82.02 29.73 81.99 29.56 81.94 29.41C81.89 29.26 81.82 29.12 81.72 29.01C81.63 28.9 81.5 28.81 81.36 28.74C81.21 28.68 81.04 28.65 80.85 28.65ZM120.04 28.65C119.85 28.65 119.67 28.68 119.52 28.76C119.36 28.84 119.22 28.94 119.12 29.06C119.01 29.18 118.92 29.32 118.86 29.47C118.8 29.62 118.77 29.77 118.77 29.91L121.21 29.91C121.21 29.73 121.18 29.56 121.13 29.41C121.08 29.26 121.01 29.12 120.91 29.01C120.82 28.9 120.69 28.81 120.55 28.74C120.4 28.68 120.23 28.65 120.04 28.65ZM110.95 28.65C110.77 28.65 110.59 28.68 110.43 28.76C110.28 28.84 110.14 28.94 110.03 29.06C109.93 29.18 109.84 29.32 109.78 29.47C109.72 29.62 109.69 29.77 109.69 29.91L112.13 29.91C112.13 29.73 112.1 29.56 112.05 29.41C112 29.26 111.93 29.12 111.83 29.01C111.73 28.9 111.61 28.81 111.47 28.74C111.32 28.68 111.15 28.65 110.95 28.65ZM99.32 28.65C99.13 28.65 98.96 28.68 98.8 28.76C98.64 28.84 98.51 28.94 98.4 29.06C98.29 29.18 98.2 29.32 98.14 29.47C98.08 29.62 98.05 29.77 98.05 29.91L100.5 29.91C100.49 29.73 100.46 29.56 100.42 29.41C100.37 29.26 100.29 29.12 100.2 29.01C100.1 28.9 99.98 28.81 99.83 28.74C99.68 28.68 99.51 28.65 99.32 28.65ZM91.71 25.93C91.86 25.93 92 25.99 92.11 26.11C92.22 26.23 92.28 26.37 92.28 26.54C92.28 26.7 92.22 26.84 92.11 26.96C92 27.08 91.86 27.14 91.71 27.14C91.55 27.14 91.42 27.08 91.31 26.96C91.2 26.84 91.14 26.7 91.14 26.54C91.14 26.37 91.2 26.23 91.31 26.11C91.42 25.99 91.55 25.93 91.71 25.93ZM20.47 19.15C20.87 19.74 20.92 21.01 20.59 21.67C19.96 22.93 18.79 23.01 17.53 23L16.91 22.99L16.91 18.21C18.3 17.92 19.66 17.95 20.47 19.15ZM87.31 14.08C87.65 14.08 87.96 14.13 88.27 14.23C88.57 14.33 88.84 14.52 89.07 14.82L88.4 15.48C88.29 15.3 88.15 15.17 87.96 15.06C87.77 14.96 87.55 14.91 87.31 14.91C87.08 14.91 86.89 14.94 86.74 15C86.59 15.07 86.47 15.15 86.38 15.25C86.28 15.35 86.22 15.46 86.18 15.58C86.15 15.69 86.13 15.8 86.13 15.9C86.13 16.17 86.2 16.38 86.35 16.53C86.5 16.68 86.68 16.8 86.91 16.89C87.13 16.98 87.37 17.06 87.63 17.14C87.89 17.21 88.13 17.31 88.35 17.44C88.57 17.58 88.76 17.75 88.9 17.98C89.05 18.2 89.13 18.51 89.13 18.9C89.13 19.21 89.07 19.49 88.96 19.74C88.85 19.99 88.7 20.2 88.51 20.37C88.32 20.55 88.1 20.68 87.84 20.77C87.58 20.86 87.3 20.91 87.01 20.91C86.62 20.91 86.25 20.83 85.9 20.69C85.55 20.54 85.28 20.31 85.07 20.01L85.75 19.38C85.9 19.62 86.09 19.8 86.32 19.91C86.55 20.02 86.79 20.08 87.04 20.08C87.18 20.08 87.32 20.06 87.46 20.01C87.6 19.97 87.73 19.9 87.85 19.81C87.97 19.71 88.06 19.6 88.14 19.47C88.21 19.33 88.25 19.18 88.25 19C88.25 18.75 88.18 18.56 88.03 18.42C87.88 18.29 87.69 18.18 87.47 18.09C87.25 18.01 87.01 17.92 86.75 17.84C86.49 17.76 86.25 17.64 86.03 17.49C85.81 17.35 85.62 17.15 85.47 16.9C85.32 16.65 85.25 16.32 85.25 15.9C85.25 15.71 85.29 15.51 85.37 15.29C85.44 15.08 85.57 14.88 85.73 14.71C85.9 14.53 86.11 14.38 86.37 14.26C86.63 14.14 86.95 14.08 87.31 14.08ZM82.53 14.08C82.86 14.08 83.18 14.13 83.49 14.23C83.79 14.33 84.06 14.52 84.29 14.82L83.62 15.48C83.51 15.3 83.37 15.17 83.18 15.06C82.99 14.96 82.77 14.91 82.53 14.91C82.3 14.91 82.11 14.94 81.96 15C81.81 15.07 81.69 15.15 81.6 15.25C81.5 15.35 81.44 15.46 81.4 15.58C81.36 15.69 81.35 15.8 81.35 15.9C81.35 16.17 81.42 16.38 81.57 16.53C81.72 16.68 81.9 16.8 82.12 16.89C82.34 16.98 82.58 17.06 82.85 17.14C83.11 17.21 83.35 17.31 83.57 17.44C83.79 17.58 83.97 17.75 84.12 17.98C84.27 18.2 84.35 18.51 84.35 18.9C84.35 19.21 84.29 19.49 84.18 19.74C84.07 19.99 83.92 20.2 83.73 20.37C83.54 20.55 83.31 20.68 83.06 20.77C82.8 20.86 82.52 20.91 82.23 20.91C81.84 20.91 81.47 20.83 81.12 20.69C80.77 20.54 80.49 20.31 80.29 20.01L80.97 19.38C81.12 19.62 81.31 19.8 81.54 19.91C81.77 20.02 82.01 20.08 82.26 20.08C82.4 20.08 82.54 20.06 82.68 20.01C82.82 19.97 82.95 19.9 83.07 19.81C83.19 19.71 83.28 19.6 83.36 19.47C83.43 19.33 83.47 19.18 83.47 19C83.47 18.75 83.4 18.56 83.25 18.42C83.1 18.29 82.91 18.18 82.69 18.09C82.47 18.01 82.23 17.92 81.97 17.84C81.71 17.76 81.47 17.64 81.25 17.49C81.02 17.35 80.84 17.15 80.69 16.9C80.54 16.65 80.47 16.32 80.47 15.9C80.47 15.71 80.51 15.51 80.58 15.29C80.66 15.08 80.78 14.88 80.95 14.71C81.12 14.53 81.33 14.38 81.59 14.26C81.85 14.14 82.17 14.08 82.53 14.08ZM95.53 14.08C95.94 14.08 96.33 14.16 96.72 14.33C97.1 14.49 97.42 14.75 97.67 15.09L96.98 15.65C96.81 15.41 96.59 15.23 96.33 15.1C96.06 14.97 95.79 14.91 95.51 14.91C95.16 14.91 94.85 14.98 94.58 15.11C94.3 15.25 94.06 15.44 93.86 15.68C93.66 15.92 93.51 16.2 93.4 16.52C93.29 16.84 93.24 17.18 93.24 17.55C93.24 17.89 93.29 18.22 93.39 18.52C93.5 18.83 93.65 19.1 93.84 19.33C94.04 19.56 94.27 19.75 94.55 19.88C94.84 20.01 95.15 20.08 95.51 20.08C95.86 20.08 96.17 20.01 96.43 19.85C96.69 19.7 96.92 19.49 97.1 19.21L97.8 19.77L97.72 19.86C97.68 19.92 97.63 19.98 97.56 20.06C97.44 20.18 97.29 20.31 97.1 20.43C96.91 20.56 96.68 20.67 96.42 20.76C96.15 20.86 95.84 20.91 95.49 20.91C95.01 20.91 94.58 20.81 94.19 20.61C93.8 20.42 93.47 20.16 93.2 19.84C92.93 19.52 92.72 19.17 92.58 18.77C92.43 18.36 92.36 17.96 92.36 17.55C92.36 17.05 92.44 16.59 92.59 16.16C92.75 15.73 92.96 15.37 93.24 15.06C93.52 14.75 93.86 14.51 94.25 14.34C94.63 14.17 95.06 14.08 95.53 14.08ZM107.64 15.17L107.64 16.39L108.74 16.39L108.74 17.11L107.64 17.11L107.64 19.08C107.64 19.2 107.64 19.33 107.64 19.44C107.65 19.56 107.67 19.67 107.71 19.76C107.74 19.86 107.8 19.94 107.88 19.99C107.96 20.05 108.07 20.08 108.22 20.08C108.31 20.08 108.41 20.07 108.5 20.05C108.6 20.04 108.69 20 108.77 19.95L108.77 20.7C108.68 20.76 108.56 20.8 108.41 20.82C108.27 20.84 108.15 20.85 108.07 20.85C107.78 20.85 107.54 20.81 107.38 20.72C107.22 20.63 107.1 20.51 107.02 20.37C106.94 20.23 106.9 20.08 106.88 19.9C106.87 19.73 106.86 19.55 106.86 19.37L106.86 17.11L105.97 17.11L105.97 16.39L106.86 16.39L106.86 15.17L107.64 15.17ZM125.6 13.81L125.6 20.74L124.83 20.74L124.83 20.12L124.81 20.12C124.66 20.35 124.45 20.53 124.19 20.66C123.93 20.79 123.66 20.85 123.39 20.85C123.07 20.85 122.79 20.79 122.53 20.68C122.28 20.56 122.06 20.4 121.88 20.19C121.7 19.98 121.56 19.74 121.46 19.47C121.37 19.19 121.32 18.89 121.32 18.57C121.32 18.24 121.37 17.94 121.46 17.66C121.56 17.39 121.7 17.14 121.88 16.94C122.06 16.73 122.28 16.57 122.53 16.46C122.79 16.34 123.07 16.28 123.39 16.28C123.68 16.28 123.96 16.35 124.21 16.48C124.47 16.61 124.67 16.79 124.81 17.02L124.83 17.02L124.83 13.81L125.6 13.81ZM118.6 16.28C118.96 16.28 119.27 16.35 119.52 16.48C119.77 16.62 119.97 16.8 120.13 17.01C120.29 17.23 120.41 17.47 120.48 17.75C120.55 18.02 120.59 18.3 120.59 18.58L120.59 18.87L117.32 18.87C117.32 19.06 117.36 19.23 117.43 19.39C117.51 19.54 117.61 19.68 117.74 19.79C117.87 19.9 118.01 19.98 118.18 20.04C118.34 20.11 118.52 20.14 118.69 20.14C118.94 20.14 119.14 20.08 119.32 19.96C119.5 19.84 119.66 19.68 119.81 19.48L120.4 19.96C119.97 20.56 119.37 20.85 118.59 20.85C118.27 20.85 117.98 20.79 117.72 20.68C117.46 20.56 117.24 20.4 117.06 20.2C116.88 19.99 116.74 19.75 116.64 19.47C116.54 19.19 116.49 18.89 116.49 18.57C116.49 18.24 116.54 17.94 116.65 17.66C116.76 17.39 116.9 17.14 117.09 16.94C117.28 16.73 117.5 16.57 117.76 16.46C118.01 16.34 118.3 16.28 118.6 16.28L118.6 16.28ZM100.46 16.28C100.82 16.28 101.13 16.35 101.38 16.48C101.63 16.62 101.83 16.8 101.99 17.01C102.15 17.23 102.27 17.47 102.34 17.75C102.41 18.02 102.45 18.3 102.45 18.58L102.45 18.87L99.18 18.87C99.18 19.06 99.22 19.23 99.3 19.39C99.37 19.54 99.48 19.68 99.6 19.79C99.73 19.9 99.88 19.98 100.04 20.04C100.21 20.11 100.38 20.14 100.56 20.14C100.8 20.14 101.01 20.08 101.19 19.96C101.36 19.84 101.53 19.68 101.68 19.48L102.26 19.96C101.83 20.56 101.23 20.85 100.45 20.85C100.13 20.85 99.84 20.79 99.58 20.68C99.32 20.56 99.1 20.4 98.92 20.2C98.74 19.99 98.6 19.75 98.5 19.47C98.41 19.19 98.36 18.89 98.36 18.57C98.36 18.24 98.41 17.94 98.51 17.66C98.62 17.39 98.77 17.14 98.95 16.94C99.14 16.73 99.36 16.57 99.62 16.46C99.88 16.34 100.16 16.28 100.46 16.28L100.46 16.28ZM76.4 14.25C76.83 14.25 77.21 14.3 77.53 14.4C77.86 14.51 78.14 14.65 78.37 14.82C78.61 14.99 78.81 15.2 78.97 15.42C79.13 15.65 79.25 15.88 79.34 16.12C79.43 16.36 79.5 16.6 79.54 16.83C79.58 17.07 79.6 17.29 79.6 17.49C79.6 17.91 79.53 18.31 79.39 18.7C79.24 19.09 79.03 19.43 78.75 19.74C78.47 20.04 78.12 20.28 77.7 20.47C77.29 20.65 76.81 20.74 76.26 20.74L74.28 20.74L74.28 14.25L76.4 14.25ZM113.5 13.7C113.59 13.7 113.68 13.7 113.77 13.71C113.87 13.71 113.97 13.73 114.08 13.76L113.99 14.49C113.92 14.46 113.85 14.44 113.78 14.43C113.71 14.42 113.63 14.41 113.55 14.41C113.41 14.41 113.29 14.44 113.21 14.48C113.12 14.53 113.05 14.59 113.01 14.68C112.96 14.76 112.92 14.87 112.91 14.99C112.9 15.1 112.89 15.24 112.89 15.39L112.89 16.39L113.81 16.39L113.81 17.11L112.88 17.11L112.88 20.74L112.11 20.74L112.11 17.11L111.23 17.11L111.23 16.39L112.11 16.39L112.11 15.42C112.11 14.84 112.21 14.41 112.42 14.12C112.63 13.84 112.99 13.7 113.5 13.7L113.5 13.7ZM115.5 16.39L115.5 20.74L114.73 20.74L114.73 16.39L115.5 16.39ZM110.58 16.39L110.58 20.74L109.8 20.74L109.8 16.39L110.58 16.39ZM105.39 16.28C105.52 16.28 105.63 16.3 105.73 16.34L105.7 17.23C105.64 17.21 105.57 17.19 105.51 17.18C105.45 17.17 105.39 17.16 105.32 17.16C104.94 17.16 104.65 17.28 104.45 17.5C104.25 17.73 104.15 18.08 104.15 18.56L104.15 20.74L103.38 20.74L103.38 16.39L104.15 16.39L104.15 17.06L104.17 17.06C104.22 16.95 104.29 16.84 104.38 16.75C104.46 16.65 104.56 16.57 104.66 16.5C104.77 16.44 104.89 16.38 105.01 16.34C105.14 16.3 105.26 16.28 105.39 16.28ZM123.48 17.05C123.28 17.05 123.09 17.09 122.92 17.17C122.76 17.25 122.62 17.35 122.5 17.48C122.39 17.61 122.3 17.77 122.24 17.96C122.17 18.14 122.14 18.35 122.14 18.57C122.14 18.79 122.17 18.99 122.24 19.18C122.3 19.36 122.39 19.52 122.5 19.65C122.62 19.79 122.76 19.89 122.92 19.97C123.09 20.04 123.28 20.08 123.48 20.08C123.69 20.08 123.88 20.04 124.04 19.97C124.21 19.89 124.35 19.79 124.46 19.65C124.58 19.52 124.67 19.36 124.73 19.18C124.79 18.99 124.83 18.79 124.83 18.57C124.83 18.35 124.79 18.14 124.73 17.96C124.67 17.77 124.58 17.61 124.46 17.48C124.35 17.35 124.21 17.25 124.04 17.17C123.88 17.09 123.69 17.05 123.48 17.05ZM76.34 15.07L75.1 15.07L75.1 19.92L76.14 19.92C76.49 19.92 76.82 19.87 77.14 19.76C77.45 19.66 77.72 19.51 77.96 19.31C78.19 19.11 78.38 18.86 78.52 18.55C78.65 18.25 78.72 17.9 78.72 17.49C78.72 17.29 78.69 17.04 78.63 16.77C78.56 16.49 78.45 16.22 78.27 15.97C78.1 15.72 77.85 15.51 77.54 15.33C77.24 15.16 76.83 15.07 76.34 15.07ZM118.58 16.94C118.39 16.94 118.22 16.98 118.06 17.06C117.9 17.13 117.77 17.23 117.66 17.36C117.55 17.48 117.47 17.61 117.41 17.77C117.35 17.91 117.32 18.06 117.32 18.21L119.76 18.21C119.76 18.03 119.73 17.86 119.68 17.71C119.63 17.55 119.56 17.42 119.46 17.31C119.36 17.19 119.24 17.1 119.09 17.04C118.95 16.98 118.78 16.94 118.58 16.94ZM100.44 16.94C100.26 16.94 100.08 16.98 99.92 17.06C99.77 17.13 99.63 17.23 99.53 17.36C99.42 17.48 99.33 17.61 99.27 17.77C99.21 17.91 99.18 18.06 99.18 18.21L101.62 18.21C101.62 18.03 101.59 17.86 101.54 17.71C101.49 17.55 101.42 17.42 101.32 17.31C101.23 17.19 101.1 17.1 100.96 17.04C100.81 16.98 100.64 16.94 100.44 16.94ZM110.19 14.23C110.34 14.23 110.48 14.29 110.59 14.41C110.7 14.53 110.76 14.67 110.76 14.83C110.76 15 110.7 15.14 110.59 15.26C110.48 15.38 110.34 15.44 110.19 15.44C110.03 15.44 109.9 15.38 109.79 15.26C109.68 15.14 109.62 15 109.62 14.83C109.62 14.67 109.68 14.53 109.79 14.41C109.9 14.29 110.03 14.23 110.19 14.23ZM115.12 14.23C115.27 14.23 115.4 14.29 115.52 14.41C115.63 14.53 115.68 14.67 115.68 14.83C115.68 15 115.63 15.14 115.52 15.26C115.4 15.38 115.27 15.44 115.12 15.44C114.96 15.44 114.83 15.38 114.72 15.26C114.61 15.14 114.55 15 114.55 14.83C114.55 14.67 114.61 14.53 114.72 14.41C114.83 14.29 114.96 14.23 115.12 14.23ZM51.45 4.36C49.04 4.36 47.49 5.9 47.47 8.32C47.45 10.73 49.02 12.33 51.41 12.33C53.84 12.34 55.38 10.81 55.38 8.37C55.39 5.93 53.85 4.37 51.45 4.36Z" fill="#FFFFFF" fill-opacity="1.000000" fill-rule="evenodd"/>
</svg>
