<svg width="50.000000" height="50.000000" viewBox="0 0 50 50" fill="none" xmlns="http://www.w3.org/2000/svg" xmlns:xlink="http://www.w3.org/1999/xlink">
	<desc>
			Created with Pixso.
	</desc>
	<defs/>
	<rect width="50.000000" height="50.000000" fill="#000000" fill-opacity="1.000000"/>
	<path d="M43.09 16.6C41.49 14.14 38.31 13.26 35.67 14.55C32.86 15.98 31.74 19.42 33.17 22.23C33.98 23.83 35.5 24.96 37.27 25.27C37.06 32.05 31.39 37.37 24.6 37.16C18.02 36.95 12.77 31.58 12.71 24.99C12.7 19.92 15.86 15.37 20.62 13.61C21.53 13.28 22.06 12.32 21.85 11.37L21.84 11.31C21.6 10.27 22.26 9.24 23.3 9.01C23.38 8.99 23.47 8.98 23.55 8.97C24.03 8.92 24.51 8.9 25 8.9C25.59 8.9 26.19 8.94 26.78 9C27.86 9.12 28.82 8.34 28.94 7.27C28.94 7.23 28.95 7.2 28.95 7.16C28.98 6.1 28.17 5.19 27.11 5.11C26.41 5.03 25.7 5 25 5C13.95 5 5 13.95 5 25C5 36.04 13.95 45 25 45C36.04 45 45 36.04 45 25C45 23.04 44.6 18.83 43.09 16.6Z" fill="#FFFFFF" fill-opacity="1.000000" fill-rule="evenodd"/>
	<path d="M32.86 6.51C34.02 6.51 34.96 7.44 34.96 8.59C34.96 9.73 34.02 10.66 32.86 10.66C31.71 10.66 30.77 9.73 30.77 8.59C30.77 7.44 31.71 6.51 32.86 6.51Z" fill="#FFFFFF" fill-opacity="1.000000" fill-rule="evenodd"/>
</svg>
