<svg width="150.000000" height="44.000000" viewBox="0 0 150 44" fill="none" xmlns="http://www.w3.org/2000/svg" xmlns:xlink="http://www.w3.org/1999/xlink">
	<desc>
			Created with Pixso.
	</desc>
	<defs/>
	<rect id="bg" rx="5.000000" width="150.000000" height="44.000000" fill="#222222" fill-opacity="1.000000"/>
	<rect id="bg" x="0.500000" y="0.500000" rx="5.000000" width="149.000000" height="43.000000" stroke="#A6A6A6" stroke-opacity="1.000000" stroke-width="1.000000"/>
	<path id="Google Play" d="M60.57 26.28Q60.35 26.14 60.03 26.14L56.84 26.14Q56.43 26.14 56.18 26.34Q56.18 26.35 56.17 26.35Q56.11 26.4 56.07 26.46Q55.93 26.66 55.93 26.97Q55.93 27.28 56.07 27.48Q56.11 27.53 56.17 27.58Q56.17 27.58 56.17 27.58Q56.42 27.79 56.84 27.79L58.88 27.79L58.88 30.98Q57.65 31.32 56.43 31.32Q54.65 31.32 53.64 30.44Q52.33 29.29 52.33 26.64Q52.33 24.36 53.32 23.2Q53.49 23 53.68 22.84Q54.65 22.04 56.29 22.04Q57.15 22.04 57.83 22.26Q58.52 22.48 59.31 23.04Q59.52 23.19 59.69 23.25Q59.85 23.31 60.05 23.31Q60.16 23.31 60.25 23.28Q60.43 23.21 60.57 23.04Q60.62 22.98 60.65 22.92Q60.79 22.69 60.79 22.37Q60.79 22.11 60.68 21.91Q60.59 21.71 60.37 21.51Q60.14 21.32 59.89 21.15Q58.39 20.14 56.21 20.14Q54.3 20.14 52.9 20.93Q52.33 21.25 51.86 21.68Q51.18 22.31 50.73 23.18Q49.97 24.64 49.97 26.64Q49.97 28.68 50.73 30.14Q51.14 30.93 51.74 31.51Q52.26 32.02 52.94 32.38Q54.38 33.16 56.34 33.16Q57.22 33.16 58.18 33.01Q59.13 32.87 59.85 32.62Q60.51 32.4 60.73 32.06Q60.95 31.72 60.95 30.89L60.95 27.02Q60.95 26.75 60.83 26.55Q60.77 26.46 60.69 26.38Q60.64 26.33 60.57 26.28ZM88.94 32.94Q89.21 33.1 89.58 33.1Q89.96 33.1 90.24 32.94Q90.32 32.89 90.39 32.83Q90.47 32.76 90.53 32.69Q90.72 32.43 90.72 32.02L90.72 21.28Q90.72 20.87 90.52 20.62Q90.46 20.55 90.39 20.49Q90.33 20.43 90.26 20.39Q89.97 20.22 89.58 20.22Q89.2 20.22 88.92 20.39Q88.85 20.43 88.78 20.49Q88.72 20.54 88.67 20.6Q88.47 20.86 88.47 21.28L88.47 32.02Q88.47 32.44 88.67 32.7Q88.72 32.77 88.78 32.83Q88.86 32.89 88.94 32.94ZM113.35 32.94Q113.62 33.1 113.99 33.1Q114.37 33.1 114.65 32.94Q114.73 32.89 114.8 32.83Q114.88 32.76 114.93 32.69Q115.13 32.43 115.13 32.02L115.13 21.28Q115.13 20.87 114.93 20.62Q114.87 20.55 114.8 20.49Q114.74 20.43 114.66 20.39Q114.38 20.22 113.99 20.22Q113.61 20.22 113.33 20.39Q113.26 20.43 113.19 20.49Q113.13 20.54 113.08 20.6Q112.88 20.86 112.88 21.28L112.88 32.02Q112.88 32.44 113.08 32.7Q113.13 32.77 113.19 32.83Q113.26 32.89 113.35 32.94ZM103.31 32.93Q103.58 33.1 103.97 33.1Q104.4 33.1 104.69 32.9Q104.76 32.85 104.82 32.79Q104.88 32.73 104.93 32.66Q105.14 32.37 105.14 31.93L105.14 28.06L108.36 28.06Q110.37 28.06 111.5 27.07Q111.51 27.06 111.53 27.04Q111.79 26.8 112 26.51Q112.66 25.58 112.66 24.18Q112.66 22.76 111.99 21.83Q111.79 21.56 111.53 21.32Q111.52 21.31 111.51 21.3Q110.37 20.3 108.36 20.3L103.93 20.3Q103.47 20.3 103.19 20.52Q103.15 20.56 103.11 20.59Q103.07 20.63 103.04 20.67Q102.81 20.95 102.81 21.4L102.81 31.93Q102.81 32.37 103.02 32.66Q103.07 32.73 103.13 32.79Q103.21 32.87 103.31 32.93ZM110.02 25.61Q109.43 26.28 108.07 26.28L105.14 26.28L105.14 22.11L108.07 22.11Q109.43 22.11 110.02 22.78Q110.47 23.29 110.47 24.19Q110.47 25.09 110.02 25.61ZM63.39 32.58Q64.4 33.14 65.75 33.14Q67.1 33.14 68.12 32.58Q68.59 32.32 68.96 31.96Q69.39 31.54 69.69 30.98Q69.97 30.44 70.11 29.8Q70.25 30.44 70.54 30.98Q70.86 31.57 71.31 32Q71.67 32.34 72.12 32.58Q73.13 33.14 74.48 33.14Q75.83 33.14 76.85 32.58Q77.32 32.32 77.69 31.96Q78.12 31.54 78.42 30.98Q78.73 30.39 78.86 29.69Q78.99 30.21 79.22 30.66Q79.57 31.35 80.11 31.82Q80.34 32.03 80.61 32.2Q80.78 32.3 80.96 32.38Q81.72 32.74 82.66 32.74Q83.62 32.74 84.38 32.34L84.38 32.34Q84.82 32.1 85.14 31.76Q85.37 31.51 85.53 31.19L85.53 32.35Q85.53 33.47 84.97 34.05Q84.38 34.65 83.18 34.65Q82.51 34.65 82 34.51Q81.48 34.36 80.84 34.09Q80.59 33.98 80.35 33.9Q80.12 33.82 79.95 33.82Q79.8 33.82 79.67 33.88Q79.55 33.94 79.46 34.05Q79.27 34.29 79.27 34.69Q79.27 34.8 79.3 34.9Q79.4 35.32 79.94 35.64Q81.25 36.38 83.21 36.38Q85.46 36.38 86.62 35.32Q86.74 35.2 86.85 35.07Q87.77 34.03 87.77 32.19L87.77 25.08Q87.77 24.72 87.6 24.47Q87.54 24.38 87.46 24.3Q87.4 24.25 87.34 24.21Q87.06 24.01 86.65 24.01Q86.24 24.01 85.96 24.2Q85.9 24.25 85.84 24.3Q85.74 24.39 85.68 24.5Q85.53 24.73 85.53 25.06L85.53 25.52Q85.36 25.21 85.13 24.95Q84.81 24.61 84.38 24.38L84.38 24.38Q83.62 23.98 82.66 23.98Q81.75 23.98 80.99 24.32Q80.79 24.41 80.6 24.53Q80.31 24.7 80.06 24.93Q79.54 25.4 79.21 26.07Q78.94 26.6 78.82 27.22Q78.69 26.63 78.42 26.13Q78.13 25.58 77.7 25.17Q77.33 24.8 76.85 24.54Q75.83 23.98 74.48 23.98Q73.13 23.98 72.12 24.54Q71.66 24.79 71.3 25.13Q70.85 25.56 70.54 26.13Q70.25 26.67 70.11 27.31Q69.97 26.67 69.69 26.13Q69.4 25.58 68.97 25.17Q68.6 24.8 68.12 24.54Q67.1 23.98 65.75 23.98Q64.4 23.98 63.39 24.54Q62.93 24.79 62.57 25.13Q62.12 25.56 61.81 26.13Q61.25 27.16 61.25 28.55Q61.25 29.94 61.81 30.98Q62.13 31.57 62.58 32Q62.94 32.34 63.39 32.58ZM98.67 30.65Q98.54 30.58 98.39 30.58Q98.13 30.58 97.59 30.87Q97.04 31.12 96.59 31.27Q96.15 31.41 95.58 31.41Q94.48 31.41 93.89 30.87Q93.87 30.85 93.85 30.83Q93.26 30.24 93.15 29L98.46 29Q98.76 29 98.93 28.85Q99.14 28.66 99.14 28.23Q99.14 26.93 98.65 25.98Q98.34 25.36 97.86 24.92Q97.6 24.68 97.29 24.5Q96.41 23.98 95.22 23.98Q94.23 23.98 93.4 24.34Q93.19 24.44 92.99 24.55Q92.61 24.78 92.3 25.07Q91.8 25.53 91.47 26.17Q90.94 27.22 90.94 28.57Q90.94 30.3 91.76 31.44Q91.95 31.69 92.18 31.92Q92.4 32.13 92.64 32.31Q93.79 33.14 95.54 33.14Q96.25 33.14 97.02 32.93Q97.79 32.73 98.4 32.38Q98.93 32.09 99.04 31.67Q99.07 31.57 99.07 31.45Q99.07 31.05 98.88 30.82Q98.79 30.71 98.67 30.65ZM122.37 24.89Q121.48 23.98 119.65 23.98Q118.8 23.98 117.92 24.18Q117.05 24.37 116.42 24.72Q116.06 24.91 115.91 25.14Q115.89 25.17 115.87 25.19Q115.76 25.4 115.76 25.67Q115.76 25.99 115.91 26.21Q115.94 26.25 115.96 26.28Q116.05 26.38 116.17 26.44Q116.31 26.51 116.5 26.51Q116.71 26.51 117.18 26.28Q117.92 25.99 118.46 25.84Q119 25.69 119.52 25.69Q120.36 25.69 120.74 26.09Q121.12 26.5 121.12 27.38L121.12 27.79L120.67 27.79Q118.71 27.79 117.6 28.05Q116.48 28.3 115.98 28.86Q115.96 28.88 115.94 28.9Q115.49 29.45 115.49 30.38Q115.49 30.83 115.62 31.22Q115.72 31.52 115.9 31.79Q116.01 31.95 116.13 32.09Q116.5 32.51 117.04 32.78Q117.11 32.82 117.19 32.85Q117.85 33.14 118.64 33.14Q119.42 33.14 120.04 32.81Q120.1 32.78 120.16 32.74Q120.49 32.54 120.74 32.26Q120.97 31.99 121.12 31.65L121.12 32.04Q121.12 32.36 121.26 32.59Q121.32 32.7 121.42 32.8Q121.5 32.88 121.61 32.94Q121.85 33.08 122.18 33.08Q122.63 33.08 122.91 32.86Q122.94 32.84 122.97 32.81Q123.03 32.75 123.08 32.69Q123.26 32.43 123.26 32.04L123.26 27.65Q123.26 25.8 122.37 24.89ZM130.45 24.18Q130.21 24.34 130.07 24.66L127.57 30.2L125.04 24.64Q124.9 24.33 124.66 24.17Q124.65 24.17 124.65 24.17Q124.56 24.11 124.47 24.08Q124.29 24.01 124.09 24.01Q123.88 24.01 123.7 24.07Q123.48 24.15 123.29 24.3Q123.07 24.48 122.99 24.71Q122.94 24.85 122.94 25Q122.94 25.24 123.03 25.42L126.38 32.38L125.15 34.96Q125.04 35.21 125.04 35.41Q125.04 35.59 125.11 35.74Q125.19 35.92 125.36 36.06Q125.52 36.19 125.7 36.26Q125.88 36.33 126.09 36.33Q126.38 36.33 126.6 36.21Q126.87 36.05 127.04 35.71L131.96 25.42Q132.07 25.2 132.07 25Q132.07 24.82 132 24.67Q131.92 24.47 131.73 24.31Q131.53 24.14 131.29 24.07Q131.14 24.03 130.99 24.03Q130.83 24.03 130.69 24.07Q130.57 24.11 130.45 24.18ZM94.14 25.86Q94.61 25.56 95.27 25.56Q95.95 25.56 96.4 25.88Q96.55 25.98 96.68 26.13Q97.18 26.69 97.22 27.79L93.15 27.79Q93.26 26.71 93.81 26.14Q93.96 25.98 94.14 25.86ZM67.05 31.01Q66.53 31.39 65.74 31.39Q64.97 31.39 64.46 31.03Q64.25 30.88 64.08 30.67Q63.5 29.95 63.5 28.55Q63.5 27.16 64.09 26.43Q64.27 26.21 64.5 26.05Q65.01 25.7 65.75 25.7Q66.5 25.7 67 26.05Q67.23 26.21 67.41 26.43Q67.99 27.16 67.99 28.55Q67.99 29.95 67.41 30.67Q67.25 30.87 67.05 31.01ZM75.78 31.01Q75.26 31.39 74.47 31.39Q73.7 31.39 73.19 31.03Q72.98 30.88 72.81 30.67Q72.23 29.95 72.23 28.55Q72.23 27.16 72.82 26.43Q73 26.21 73.23 26.05Q73.74 25.7 74.48 25.7Q75.23 25.7 75.73 26.05Q75.96 26.21 76.14 26.43Q76.72 27.16 76.72 28.55Q76.72 29.95 76.14 30.67Q75.98 30.87 75.78 31.01ZM84.56 30.63Q84.03 31 83.25 31Q82.51 31 81.99 30.66Q81.76 30.51 81.58 30.3Q81.57 30.29 81.57 30.28Q80.96 29.58 80.96 28.37Q80.96 27.13 81.58 26.43Q81.77 26.21 82 26.06Q82.52 25.72 83.25 25.72Q84.02 25.72 84.55 26.08Q84.76 26.23 84.93 26.43Q85.53 27.13 85.53 28.37Q85.53 29.59 84.93 30.3Q84.77 30.49 84.56 30.63ZM120.08 31.28Q119.65 31.52 119.09 31.52Q118.69 31.52 118.38 31.36Q118.22 31.27 118.09 31.15Q117.92 30.99 117.82 30.8Q117.68 30.54 117.68 30.2Q117.68 29.85 117.85 29.61Q117.9 29.53 117.97 29.47Q118.26 29.2 118.92 29.09Q119.59 28.98 120.8 28.98L121.12 28.98L121.12 29.36Q121.12 30.08 120.8 30.6Q120.69 30.77 120.55 30.92Q120.34 31.14 120.08 31.28Z" fill="#FFFFFF" fill-opacity="1.000000" fill-rule="evenodd"/>
	<path id="Get it on" d="M55.43 12.27Q55.3 12.18 55.13 12.18L53.36 12.18Q53.12 12.18 52.99 12.3Q52.98 12.3 52.98 12.31Q52.95 12.33 52.93 12.36Q52.85 12.47 52.85 12.65Q52.85 12.82 52.93 12.93Q52.95 12.96 52.98 12.98Q52.98 12.99 52.98 12.99Q53.12 13.1 53.36 13.1L54.49 13.1L54.49 14.87Q53.8 15.06 53.13 15.06Q52.13 15.06 51.57 14.57Q50.85 13.93 50.85 12.46Q50.85 11.2 51.4 10.55Q51.49 10.44 51.6 10.35Q52.14 9.91 53.05 9.91Q53.52 9.91 53.9 10.03Q54.29 10.16 54.73 10.47Q54.84 10.55 54.93 10.58Q55.03 10.61 55.14 10.61Q55.2 10.61 55.25 10.6Q55.35 10.56 55.43 10.47Q55.45 10.43 55.47 10.4Q55.55 10.27 55.55 10.09Q55.55 9.95 55.49 9.84Q55.44 9.73 55.32 9.62Q55.19 9.51 55.05 9.41Q54.21 8.85 53 8.85Q51.94 8.85 51.16 9.29Q50.85 9.47 50.59 9.71Q50.21 10.06 49.96 10.54Q49.53 11.35 49.53 12.46Q49.53 13.6 49.96 14.41Q50.19 14.85 50.52 15.17Q50.81 15.46 51.18 15.66Q51.99 16.09 53.07 16.09Q53.57 16.09 54.1 16Q54.62 15.92 55.03 15.79Q55.39 15.67 55.51 15.48Q55.64 15.28 55.64 14.83L55.64 12.67Q55.64 12.52 55.57 12.41Q55.54 12.36 55.49 12.32Q55.46 12.29 55.43 12.27ZM84.83 15.65Q85.59 16.09 86.61 16.09Q87.63 16.09 88.39 15.65Q88.67 15.48 88.9 15.27Q89.3 14.9 89.56 14.39Q89.97 13.57 89.97 12.46Q89.97 11.37 89.56 10.55Q89.31 10.05 88.92 9.68Q88.69 9.46 88.4 9.3Q87.64 8.85 86.61 8.85Q85.59 8.85 84.82 9.3Q84.53 9.47 84.29 9.69Q83.91 10.05 83.66 10.55Q83.25 11.37 83.25 12.46Q83.25 13.57 83.66 14.39Q83.93 14.91 84.33 15.28Q84.56 15.49 84.83 15.65ZM72.11 15.96Q72.26 16.06 72.46 16.06Q72.7 16.06 72.86 15.95Q72.9 15.92 72.94 15.88Q72.99 15.83 73.02 15.78Q73.12 15.62 73.12 15.4L73.12 9.54Q73.12 9.31 73.01 9.16Q72.98 9.11 72.94 9.07Q72.91 9.04 72.87 9.01Q72.71 8.9 72.46 8.9Q72.25 8.9 72.1 8.99Q72.05 9.03 72 9.07Q71.96 9.11 71.93 9.16Q71.82 9.31 71.82 9.54L71.82 15.4Q71.82 15.62 71.92 15.78Q71.95 15.83 72 15.88Q72.05 15.93 72.11 15.96ZM96.95 8.99Q96.81 8.9 96.61 8.9Q96.42 8.9 96.29 8.98Q96.22 9.01 96.17 9.07Q96.14 9.1 96.12 9.13Q96.01 9.29 96.01 9.54L96.01 13.85L92.37 9.12Q92.3 9.03 92.21 8.98Q92.07 8.9 91.88 8.9Q91.69 8.9 91.55 8.98Q91.49 9.02 91.44 9.07Q91.4 9.11 91.37 9.15Q91.26 9.3 91.26 9.54L91.26 15.4Q91.26 15.65 91.38 15.82Q91.4 15.85 91.42 15.88Q91.47 15.93 91.52 15.96Q91.66 16.06 91.86 16.06Q92.07 16.06 92.21 15.96Q92.26 15.93 92.3 15.88Q92.33 15.85 92.35 15.81Q92.47 15.65 92.47 15.4L92.47 11.08L96.12 15.82Q96.18 15.91 96.26 15.96Q96.4 16.06 96.61 16.06Q96.78 16.06 96.9 15.98Q96.98 15.94 97.04 15.88Q97.08 15.83 97.11 15.79Q97.21 15.63 97.21 15.4L97.21 9.54Q97.21 9.3 97.1 9.14Q97.08 9.1 97.05 9.07Q97 9.02 96.95 8.99ZM57.29 15.87Q57.45 16 57.7 16L61.32 16Q61.61 16 61.76 15.87Q61.81 15.83 61.85 15.78Q61.93 15.66 61.93 15.49Q61.93 15.31 61.84 15.19Q61.81 15.15 61.76 15.11Q61.61 14.97 61.32 14.97L58.34 14.97L58.34 12.91L61.12 12.91Q61.41 12.91 61.56 12.78Q61.61 12.74 61.65 12.69Q61.73 12.58 61.73 12.42Q61.73 12.23 61.63 12.11Q61.6 12.07 61.56 12.04Q61.41 11.91 61.12 11.91L58.34 11.91L58.34 9.96L61.32 9.96Q61.61 9.96 61.76 9.83Q61.81 9.8 61.84 9.75Q61.93 9.63 61.93 9.44Q61.93 9.28 61.85 9.17Q61.81 9.12 61.76 9.08Q61.61 8.94 61.32 8.94L57.7 8.94Q57.45 8.94 57.29 9.07Q57.27 9.08 57.25 9.11Q57.23 9.13 57.21 9.15Q57.08 9.3 57.08 9.55L57.08 15.38Q57.08 15.64 57.21 15.79Q57.23 15.81 57.25 15.84Q57.27 15.85 57.29 15.87ZM64.89 15.93Q65.05 16.04 65.29 16.04Q65.52 16.04 65.67 15.94Q65.72 15.91 65.76 15.87Q65.8 15.83 65.84 15.78Q65.94 15.62 65.94 15.4L65.94 10.01L67.75 10.01Q68.09 10.01 68.24 9.84Q68.36 9.71 68.36 9.47Q68.36 9.24 68.24 9.11Q68.09 8.94 67.75 8.94L62.83 8.94Q62.49 8.94 62.34 9.11Q62.23 9.24 62.23 9.47Q62.23 9.71 62.34 9.84Q62.49 10.01 62.83 10.01L64.64 10.01L64.64 15.4Q64.64 15.62 64.75 15.78Q64.78 15.83 64.82 15.87Q64.85 15.9 64.89 15.93ZM76.54 15.93Q76.7 16.04 76.94 16.04Q77.17 16.04 77.32 15.94Q77.37 15.91 77.41 15.87Q77.45 15.83 77.49 15.78Q77.59 15.62 77.59 15.4L77.59 10.01L79.4 10.01Q79.74 10.01 79.89 9.84Q80.01 9.71 80.01 9.47Q80.01 9.24 79.89 9.11Q79.74 8.94 79.4 8.94L74.48 8.94Q74.14 8.94 73.99 9.11Q73.87 9.24 73.87 9.47Q73.87 9.71 73.99 9.84Q74.14 10.01 74.48 10.01L76.29 10.01L76.29 15.4Q76.29 15.62 76.4 15.78Q76.43 15.83 76.47 15.87Q76.5 15.9 76.54 15.93ZM87.71 14.76Q87.25 15.06 86.61 15.06Q85.96 15.06 85.5 14.76Q85.27 14.61 85.09 14.39Q84.55 13.71 84.55 12.46Q84.55 11.21 85.09 10.55Q85.27 10.33 85.49 10.19Q85.96 9.88 86.61 9.88Q87.26 9.88 87.71 10.18Q87.95 10.33 88.13 10.55Q88.67 11.21 88.67 12.46Q88.67 13.71 88.13 14.39Q87.94 14.61 87.71 14.76Z" fill="#FFFFFF" fill-opacity="1.000000" fill-rule="evenodd"/>
	<path id="Vector" d="M32.73 26.65L28.43 22.15L28.43 21.84L32.73 17.34L32.82 17.4L37.9 20.42C39.36 21.28 39.36 22.7 37.9 23.56L32.82 26.59L32.73 26.65Z" fill="#FFE000" fill-opacity="1.000000" fill-rule="evenodd"/>
	<path id="Vector" d="M32.82 26.59L28.43 21.99L15.47 35.56C15.94 36.09 16.74 36.16 17.63 35.64L32.82 26.59L32.82 26.59Z" fill="#FF3A44" fill-opacity="1.000000" fill-rule="evenodd"/>
	<path id="Vector" d="M32.82 17.4L17.63 8.36C16.74 7.83 15.94 7.9 15.47 8.44L28.43 21.99L32.82 17.4L32.82 17.4Z" fill="#06E775" fill-opacity="1.000000" fill-rule="evenodd"/>
	<g opacity="0.200000">
		<path id="Vector" d="M32.73 26.49L17.64 35.47C16.8 35.97 16.05 35.94 15.56 35.48L15.48 35.56L15.56 35.63C16.05 36.09 16.8 36.13 17.64 35.62L32.83 26.59L32.73 26.49Z" fill="#000000" fill-opacity="1.000000" fill-rule="nonzero"/>
	</g>
	<g opacity="0.120000">
		<path id="Vector" d="M37.9 23.41L32.72 26.49L32.81 26.59L37.89 23.56C38.62 23.13 38.98 22.56 38.98 21.99C38.93 22.51 38.56 23.01 37.9 23.41L37.9 23.41Z" fill="#000000" fill-opacity="1.000000" fill-rule="nonzero"/>
	</g>
	<g opacity="0.250000">
		<path id="Vector" d="M17.63 8.52L37.9 20.58C38.56 20.97 38.93 21.47 38.99 21.99C38.99 21.43 38.63 20.86 37.9 20.42L17.63 8.36C16.18 7.49 15 8.22 15 9.96L15 10.12C15 8.37 16.18 7.66 17.63 8.52Z" fill="#FFFFFF" fill-opacity="1.000000" fill-rule="evenodd"/>
	</g>
	<path id="Vector" d="M15.47 8.42C15.17 8.76 15 9.28 15 9.96L15 34.03C15 34.71 15.17 35.23 15.48 35.55L15.56 35.63L28.44 22.14L28.44 21.84L15.55 8.35L15.47 8.42Z" fill="#00D2FF" fill-opacity="1.000000" fill-rule="evenodd"/>
</svg>
