<svg width="216.000000" height="23.000000" viewBox="0 0 216 23" fill="none" xmlns="http://www.w3.org/2000/svg" xmlns:xlink="http://www.w3.org/1999/xlink">
	<desc>
			Created with Pixso.
	</desc>
	<defs/>
	<path d="M35.5 14.45C35.65 14.59 35.73 14.8 35.72 15.02C35.72 15.63 35.4 15.94 34.76 15.94L29.22 15.94C28.8 15.97 28.43 15.61 28.41 15.14C28.4 15.11 28.4 15.08 28.41 15.05C28.41 14.74 28.52 14.44 28.73 14.23L33.3 8.82L29.76 8.82C29.53 8.84 29.3 8.77 29.12 8.62C28.97 8.47 28.88 8.25 28.9 8.03C28.9 7.43 29.22 7.13 29.86 7.13L35.15 7.13C35.37 7.12 35.59 7.21 35.75 7.39C35.89 7.56 35.97 7.78 35.97 8.01C35.96 8.33 35.85 8.63 35.64 8.86L31.09 14.24L34.86 14.24C35.09 14.23 35.32 14.3 35.5 14.45ZM38.43 10.73L42.16 10.73C42.21 10.14 42.06 9.54 41.73 9.07C41.42 8.68 40.96 8.47 40.49 8.5C39.33 8.5 38.64 9.24 38.43 10.73L38.43 10.73ZM43.71 11.73C43.58 11.87 43.4 11.95 43.22 11.94L38.36 11.94C38.35 12.6 38.57 13.25 38.97 13.74C39.41 14.17 39.99 14.39 40.57 14.35C40.92 14.36 41.27 14.31 41.61 14.2C41.94 14.09 42.25 13.94 42.54 13.74C42.66 13.66 42.8 13.62 42.95 13.61C43.11 13.61 43.28 13.69 43.38 13.84C43.49 14 43.54 14.19 43.53 14.39C43.54 14.73 43.38 15.06 43.13 15.25C42.77 15.53 42.37 15.73 41.95 15.85C41.46 16 40.95 16.08 40.44 16.08C39.7 16.1 38.96 15.92 38.29 15.55C37.7 15.21 37.21 14.69 36.88 14.05C36.53 13.35 36.36 12.57 36.38 11.78C36.37 10.91 36.54 10.05 36.89 9.27C37.2 8.55 37.7 7.95 38.31 7.54C38.94 7.12 39.67 6.9 40.41 6.91C41.37 6.85 42.31 7.25 42.99 8.01C43.64 8.89 43.96 10.01 43.9 11.15C43.91 11.36 43.84 11.57 43.71 11.73L43.71 11.73ZM52.13 7.72C52.64 8.38 52.89 9.23 52.83 10.08C52.83 10.31 52.83 10.49 52.81 10.61L52.49 14.97C52.48 15.27 52.36 15.55 52.16 15.76C51.95 15.95 51.68 16.06 51.41 16.05C51.14 16.06 50.87 15.96 50.67 15.76C50.49 15.54 50.4 15.25 50.44 14.97L50.77 10.7C50.85 9.36 50.37 8.7 49.33 8.7C48.8 8.67 48.29 8.88 47.92 9.29C47.56 9.75 47.35 10.34 47.33 10.95L47.02 14.97C47.01 15.27 46.89 15.55 46.69 15.76C46.48 15.95 46.21 16.06 45.94 16.05C45.67 16.07 45.4 15.96 45.21 15.76C45.03 15.54 44.95 15.25 44.97 14.97L45.49 7.98C45.5 7.69 45.62 7.41 45.82 7.23C46.04 7.04 46.31 6.94 46.59 6.95C46.85 6.93 47.09 7.03 47.28 7.22C47.45 7.41 47.52 7.68 47.48 7.94L47.46 8.28C47.74 7.85 48.12 7.5 48.56 7.27C49.04 7.03 49.56 6.91 50.1 6.92C50.85 6.86 51.59 7.15 52.13 7.72L52.13 7.72ZM19.91 6.67C19.08 5.25 17.41 4.75 16.03 5.49C14.56 6.31 13.98 8.29 14.72 9.9C15.15 10.83 15.94 11.47 16.87 11.65C16.76 15.55 13.79 18.61 10.25 18.49C6.8 18.37 4.06 15.28 4.03 11.49C4.02 8.57 5.67 5.96 8.16 4.95C8.64 4.76 8.92 4.21 8.81 3.66L8.8 3.63C8.68 3.03 9.02 2.44 9.56 2.3C9.61 2.29 9.65 2.28 9.7 2.28C9.95 2.25 10.2 2.24 10.45 2.24C10.76 2.24 11.08 2.26 11.39 2.3C11.95 2.37 12.45 1.92 12.51 1.3C12.52 1.28 12.52 1.26 12.52 1.24C12.53 0.63 12.11 0.11 11.56 0.06C11.19 0.02 10.82 0 10.45 0C4.68 0 0 5.14 0 11.5C0 17.85 4.68 23 10.45 23C16.23 23 20.91 17.85 20.91 11.5C20.91 10.37 20.7 7.95 19.91 6.67Z" fill="#FFFFFF" fill-opacity="1.000000" fill-rule="evenodd"/>
	<path d="M14.4 0.87C14.99 0.87 15.48 1.4 15.48 2.06C15.48 2.72 14.99 3.25 14.4 3.25C13.8 3.25 13.31 2.72 13.31 2.06C13.31 1.4 13.8 0.87 14.4 0.87ZM61.03 10.41C61.62 10.41 62.11 10.94 62.11 11.6C62.11 12.26 61.62 12.79 61.03 12.79C60.43 12.79 59.94 12.26 59.94 11.6C59.94 10.94 60.43 10.41 61.03 10.41ZM74.71 7.61C74.81 7.74 74.87 7.9 74.87 8.09C74.87 8.33 74.78 8.55 74.62 8.75L69.99 14.33L73.95 14.33C74.15 14.33 74.31 14.39 74.42 14.5C74.53 14.61 74.59 14.76 74.59 14.96C74.59 15.18 74.53 15.35 74.41 15.47C74.29 15.59 74.11 15.65 73.87 15.65L68.53 15.65C68.34 15.65 68.18 15.59 68.08 15.46C67.97 15.34 67.92 15.18 67.92 14.99C67.92 14.76 68 14.56 68.16 14.36L72.81 8.73L69.11 8.73C68.91 8.73 68.75 8.67 68.64 8.56C68.53 8.45 68.47 8.3 68.47 8.1C68.47 7.64 68.71 7.41 69.18 7.41L74.25 7.41C74.45 7.41 74.6 7.48 74.71 7.61L74.71 7.61ZM77.91 9.07C77.54 9.47 77.3 10.06 77.2 10.84L81.16 10.84C81.18 10.06 81.03 9.47 80.72 9.07C80.41 8.66 79.97 8.46 79.4 8.46C78.77 8.46 78.28 8.66 77.91 9.07ZM82.35 11.64C82.24 11.76 82.1 11.82 81.91 11.82L77.14 11.82C77.15 12.65 77.34 13.29 77.72 13.75C78.1 14.2 78.65 14.43 79.36 14.43C80.08 14.43 80.75 14.21 81.36 13.76C81.47 13.68 81.58 13.64 81.7 13.64C81.84 13.64 81.96 13.7 82.05 13.82C82.14 13.95 82.19 14.09 82.19 14.26C82.19 14.52 82.09 14.74 81.88 14.92C81.6 15.17 81.22 15.37 80.74 15.53C80.25 15.69 79.76 15.76 79.27 15.76C78.54 15.76 77.89 15.6 77.34 15.28C76.79 14.95 76.36 14.48 76.06 13.88C75.76 13.27 75.61 12.56 75.61 11.77C75.61 10.88 75.76 10.09 76.07 9.39C76.39 8.7 76.82 8.17 77.39 7.78C77.95 7.4 78.6 7.21 79.33 7.21C80.36 7.21 81.14 7.54 81.69 8.21C82.24 8.88 82.51 9.85 82.51 11.12C82.51 11.35 82.46 11.52 82.35 11.64L82.35 11.64ZM88.92 7.38C89.03 7.49 89.09 7.65 89.09 7.87C89.09 8.38 88.84 8.67 88.33 8.71L87.91 8.76C87.2 8.84 86.68 9.07 86.34 9.44C86 9.81 85.8 10.35 85.75 11.07L85.46 14.92C85.44 15.2 85.35 15.41 85.2 15.54C85.04 15.67 84.85 15.73 84.63 15.73C84.4 15.73 84.22 15.66 84.08 15.53C83.95 15.39 83.89 15.19 83.91 14.92L84.41 8.02C84.42 7.77 84.51 7.58 84.67 7.44C84.84 7.31 85.03 7.24 85.24 7.24C85.45 7.24 85.61 7.31 85.73 7.44C85.85 7.57 85.91 7.75 85.9 8L85.85 8.7C86.37 7.83 87.17 7.35 88.28 7.26L88.45 7.24C88.64 7.22 88.8 7.27 88.92 7.38ZM94.61 13.54C94.99 12.95 95.18 12.17 95.18 11.17C95.18 10.33 95 9.69 94.65 9.24C94.3 8.8 93.79 8.58 93.14 8.58C92.42 8.58 91.87 8.87 91.5 9.45C91.12 10.04 90.93 10.83 90.93 11.82C90.93 12.67 91.11 13.32 91.46 13.76C91.81 14.19 92.32 14.42 92.99 14.42C93.69 14.42 94.23 14.12 94.61 13.54ZM91.07 15.28C90.53 14.95 90.11 14.48 89.81 13.88C89.51 13.27 89.36 12.56 89.36 11.77C89.36 10.84 89.52 10.04 89.83 9.35C90.14 8.67 90.58 8.14 91.15 7.77C91.72 7.4 92.38 7.21 93.12 7.21C93.86 7.21 94.5 7.37 95.04 7.71C95.58 8.04 96 8.51 96.3 9.11C96.6 9.71 96.74 10.42 96.74 11.23C96.74 12.15 96.59 12.95 96.28 13.63C95.96 14.31 95.52 14.84 94.96 15.21C94.39 15.58 93.73 15.76 92.97 15.76C92.24 15.76 91.61 15.6 91.07 15.28ZM104.37 9.07C104 9.47 103.77 10.06 103.66 10.84L107.62 10.84C107.64 10.06 107.5 9.47 107.19 9.07C106.87 8.66 106.43 8.46 105.86 8.46C105.23 8.46 104.74 8.66 104.37 9.07ZM108.81 11.64C108.7 11.76 108.56 11.82 108.37 11.82L103.6 11.82C103.61 12.65 103.81 13.29 104.19 13.75C104.56 14.2 105.11 14.43 105.83 14.43C106.54 14.43 107.21 14.21 107.82 13.76C107.93 13.68 108.05 13.64 108.16 13.64C108.3 13.64 108.42 13.7 108.51 13.82C108.61 13.95 108.65 14.09 108.65 14.26C108.65 14.52 108.55 14.74 108.34 14.92C108.07 15.17 107.69 15.37 107.2 15.53C106.72 15.69 106.23 15.76 105.74 15.76C105 15.76 104.35 15.6 103.8 15.28C103.25 14.95 102.82 14.48 102.52 13.88C102.22 13.27 102.07 12.56 102.07 11.77C102.07 10.88 102.22 10.09 102.54 9.39C102.85 8.7 103.29 8.17 103.85 7.78C104.41 7.4 105.06 7.21 105.8 7.21C106.82 7.21 107.61 7.54 108.15 8.21C108.7 8.88 108.97 9.85 108.97 11.12C108.97 11.35 108.92 11.52 108.81 11.64ZM113.4 5.59C113.14 5.9 112.99 6.37 112.94 6.99L112.9 7.41L114.42 7.41C114.63 7.41 114.79 7.47 114.89 7.58C115 7.69 115.05 7.84 115.05 8.04C115.05 8.5 114.82 8.73 114.35 8.73L112.81 8.73L112.37 14.92C112.36 15.19 112.27 15.39 112.12 15.53C111.96 15.66 111.77 15.73 111.56 15.73C111.34 15.73 111.16 15.66 111.02 15.53C110.88 15.39 110.81 15.19 110.82 14.92L111.26 8.73L110.36 8.73C110.15 8.73 110 8.67 109.88 8.56C109.77 8.45 109.71 8.3 109.71 8.1C109.71 7.88 109.78 7.71 109.9 7.59C110.02 7.47 110.2 7.41 110.43 7.41L111.36 7.41L111.37 7.19C111.54 5.03 112.59 3.89 114.55 3.75L114.87 3.73C115.41 3.7 115.68 3.9 115.68 4.32C115.68 4.54 115.63 4.7 115.51 4.81C115.4 4.93 115.24 4.99 115.02 5.02L114.61 5.05C114.07 5.09 113.66 5.28 113.4 5.59ZM119.33 5.59C119.07 5.9 118.91 6.37 118.86 6.99L118.83 7.41L120.35 7.41C120.55 7.41 120.71 7.47 120.82 7.58C120.92 7.69 120.98 7.84 120.98 8.04C120.98 8.5 120.74 8.73 120.27 8.73L118.74 8.73L118.29 14.92C118.28 15.19 118.2 15.39 118.04 15.53C117.88 15.66 117.69 15.73 117.48 15.73C117.26 15.73 117.09 15.66 116.94 15.53C116.8 15.39 116.73 15.19 116.74 14.92L117.19 8.73L116.28 8.73C116.08 8.73 115.92 8.67 115.81 8.56C115.69 8.45 115.64 8.3 115.64 8.1C115.64 7.88 115.7 7.71 115.82 7.59C115.94 7.47 116.12 7.41 116.36 7.41L117.28 7.41L117.3 7.19C117.46 5.03 118.52 3.89 120.47 3.75L120.79 3.73C121.34 3.7 121.61 3.9 121.61 4.32C121.61 4.54 121.55 4.7 121.44 4.81C121.32 4.93 121.16 4.99 120.95 5.02L120.53 5.05C119.99 5.09 119.59 5.28 119.33 5.59ZM126.58 13.54C126.96 12.95 127.15 12.17 127.15 11.17C127.15 10.33 126.97 9.69 126.62 9.24C126.26 8.8 125.76 8.58 125.1 8.58C124.39 8.58 123.84 8.87 123.46 9.45C123.08 10.04 122.9 10.83 122.9 11.82C122.9 12.67 123.07 13.32 123.42 13.76C123.78 14.19 124.29 14.42 124.95 14.42C125.66 14.42 126.2 14.12 126.58 13.54ZM123.03 15.28C122.49 14.95 122.07 14.48 121.77 13.88C121.48 13.27 121.33 12.56 121.33 11.77C121.33 10.84 121.49 10.04 121.8 9.35C122.11 8.67 122.55 8.14 123.12 7.77C123.68 7.4 124.34 7.21 125.09 7.21C125.83 7.21 126.46 7.37 127.01 7.71C127.55 8.04 127.97 8.51 128.27 9.11C128.56 9.71 128.71 10.42 128.71 11.23C128.71 12.15 128.55 12.95 128.24 13.63C127.93 14.31 127.49 14.84 126.92 15.21C126.36 15.58 125.69 15.76 124.94 15.76C124.21 15.76 123.58 15.6 123.03 15.28L123.03 15.28ZM135.12 7.38C135.23 7.49 135.29 7.65 135.29 7.87C135.29 8.38 135.04 8.67 134.53 8.71L134.11 8.76C133.41 8.84 132.88 9.07 132.54 9.44C132.2 9.81 132 10.35 131.95 11.07L131.66 14.92C131.64 15.2 131.55 15.41 131.4 15.54C131.24 15.67 131.05 15.73 130.83 15.73C130.6 15.73 130.42 15.66 130.28 15.53C130.15 15.39 130.09 15.19 130.11 14.92L130.61 8.02C130.62 7.77 130.71 7.58 130.88 7.44C131.04 7.31 131.23 7.24 131.44 7.24C131.65 7.24 131.81 7.31 131.93 7.44C132.06 7.57 132.11 7.75 132.1 8L132.06 8.7C132.57 7.83 133.37 7.35 134.48 7.26L134.65 7.24C134.84 7.22 135 7.27 135.12 7.38ZM138.65 12.59C138.64 12.66 138.63 12.76 138.63 12.9C138.63 13.4 138.74 13.79 138.95 14.05C139.16 14.32 139.45 14.45 139.83 14.45C139.95 14.45 140.07 14.44 140.2 14.42C140.32 14.41 140.42 14.4 140.49 14.4C140.61 14.4 140.71 14.45 140.78 14.56C140.85 14.67 140.89 14.81 140.89 15C140.89 15.29 140.79 15.48 140.59 15.6C140.39 15.71 140.04 15.76 139.54 15.76C138.76 15.76 138.16 15.53 137.73 15.06C137.3 14.58 137.08 13.92 137.08 13.06C137.08 12.88 137.09 12.74 137.1 12.64L137.37 8.73L136.47 8.73C136.26 8.73 136.11 8.67 135.99 8.56C135.88 8.45 135.82 8.29 135.82 8.09C135.82 7.87 135.89 7.71 136.01 7.59C136.13 7.47 136.31 7.41 136.54 7.41L137.47 7.41L137.59 5.66C137.61 5.42 137.7 5.23 137.85 5.08C138 4.94 138.19 4.86 138.42 4.86C138.65 4.86 138.84 4.94 138.97 5.08C139.1 5.23 139.16 5.43 139.14 5.67L139.01 7.41L140.53 7.41C140.73 7.41 140.88 7.47 141 7.58C141.11 7.69 141.16 7.84 141.16 8.04C141.16 8.5 140.93 8.73 140.46 8.73L138.92 8.73L138.65 12.59ZM152.31 7.94C152.74 8.42 152.96 9.13 152.96 10.08C152.96 10.3 152.96 10.47 152.95 10.59L152.64 14.92C152.62 15.18 152.53 15.38 152.39 15.52C152.24 15.66 152.05 15.73 151.81 15.73C151.58 15.73 151.39 15.66 151.26 15.52C151.13 15.38 151.07 15.18 151.09 14.92L151.4 10.67C151.41 10.59 151.41 10.47 151.41 10.31C151.41 9.17 150.91 8.59 149.91 8.59C149.27 8.59 148.77 8.8 148.4 9.22C148.02 9.63 147.81 10.21 147.76 10.96L147.47 14.92C147.45 15.18 147.36 15.38 147.22 15.52C147.07 15.66 146.88 15.73 146.64 15.73C146.41 15.73 146.22 15.66 146.1 15.52C145.97 15.38 145.91 15.18 145.92 14.92L146.43 8.02C146.44 7.78 146.52 7.59 146.69 7.45C146.85 7.31 147.05 7.24 147.27 7.24C147.48 7.24 147.65 7.31 147.78 7.45C147.9 7.58 147.95 7.77 147.95 8L147.9 8.59C148.16 8.15 148.5 7.81 148.94 7.57C149.37 7.33 149.86 7.21 150.4 7.21C151.24 7.21 151.88 7.45 152.31 7.94ZM159.73 13.54C160.11 12.95 160.3 12.17 160.3 11.17C160.3 10.33 160.12 9.69 159.77 9.24C159.42 8.8 158.91 8.58 158.26 8.58C157.54 8.58 156.99 8.87 156.62 9.45C156.24 10.04 156.05 10.83 156.05 11.82C156.05 12.67 156.22 13.32 156.58 13.76C156.93 14.19 157.44 14.42 158.1 14.42C158.81 14.42 159.35 14.12 159.73 13.54L159.73 13.54ZM156.19 15.28C155.64 14.95 155.22 14.48 154.93 13.88C154.63 13.27 154.48 12.56 154.48 11.77C154.48 10.84 154.64 10.04 154.95 9.35C155.26 8.67 155.7 8.14 156.27 7.77C156.84 7.4 157.5 7.21 158.24 7.21C158.98 7.21 159.62 7.37 160.16 7.71C160.7 8.04 161.12 8.51 161.42 9.11C161.72 9.71 161.86 10.42 161.86 11.23C161.86 12.15 161.71 12.95 161.4 13.63C161.08 14.31 160.64 14.84 160.08 15.21C159.51 15.58 158.85 15.76 158.09 15.76C157.36 15.76 156.73 15.6 156.19 15.28ZM169.64 7.94C170.08 8.42 170.29 9.13 170.29 10.08C170.29 10.3 170.29 10.47 170.28 10.59L169.97 14.92C169.95 15.18 169.87 15.38 169.72 15.52C169.57 15.66 169.38 15.73 169.14 15.73C168.91 15.73 168.72 15.66 168.59 15.52C168.46 15.38 168.4 15.18 168.42 14.92L168.73 10.67C168.74 10.59 168.74 10.47 168.74 10.31C168.74 9.17 168.24 8.59 167.24 8.59C166.61 8.59 166.1 8.8 165.73 9.22C165.36 9.63 165.15 10.21 165.09 10.96L164.8 14.92C164.78 15.18 164.7 15.38 164.55 15.52C164.4 15.66 164.21 15.73 163.97 15.73C163.74 15.73 163.56 15.66 163.43 15.52C163.3 15.38 163.24 15.18 163.25 14.92L163.76 8.02C163.77 7.78 163.86 7.59 164.02 7.45C164.18 7.31 164.38 7.24 164.6 7.24C164.82 7.24 164.99 7.31 165.11 7.45C165.23 7.58 165.29 7.77 165.28 8L165.23 8.59C165.49 8.15 165.83 7.81 166.27 7.57C166.7 7.33 167.19 7.21 167.73 7.21C168.57 7.21 169.21 7.45 169.64 7.94ZM177.46 13.57C177.84 13.01 178.03 12.23 178.03 11.24C178.03 10.39 177.85 9.73 177.49 9.27C177.14 8.81 176.63 8.58 175.96 8.58C175.29 8.58 174.75 8.86 174.36 9.43C173.98 10 173.78 10.77 173.78 11.75C173.78 12.62 173.96 13.28 174.32 13.73C174.68 14.19 175.19 14.42 175.85 14.42C176.54 14.42 177.07 14.13 177.46 13.57ZM178.09 7.7C178.57 8.03 178.95 8.49 179.21 9.09C179.48 9.69 179.61 10.39 179.61 11.19C179.61 12.09 179.46 12.89 179.17 13.58C178.87 14.27 178.45 14.81 177.92 15.19C177.38 15.57 176.76 15.76 176.07 15.76C175.49 15.76 174.98 15.63 174.56 15.36C174.13 15.09 173.81 14.71 173.58 14.21L173.54 14.92C173.53 15.18 173.44 15.38 173.29 15.52C173.14 15.66 172.95 15.73 172.72 15.73C172.5 15.73 172.32 15.66 172.19 15.52C172.05 15.38 171.99 15.18 172 14.92L172.77 4.44C172.78 4.21 172.87 4.02 173.03 3.87C173.19 3.72 173.39 3.65 173.61 3.65C173.84 3.65 174.01 3.72 174.14 3.85C174.27 3.99 174.33 4.17 174.32 4.41L174.01 8.54C174.27 8.13 174.61 7.8 175.03 7.56C175.46 7.33 175.92 7.21 176.42 7.21C177.04 7.21 177.6 7.37 178.09 7.7ZM185.12 13.88C185.49 13.46 185.69 12.92 185.74 12.27L185.78 11.8L185.35 11.8C184.59 11.8 184 11.84 183.57 11.93C183.14 12.02 182.83 12.17 182.65 12.37C182.46 12.58 182.37 12.86 182.37 13.22C182.37 13.61 182.49 13.92 182.75 14.15C183 14.38 183.34 14.5 183.77 14.5C184.3 14.5 184.75 14.29 185.12 13.88L185.12 13.88ZM187.37 10.11C187.37 10.33 187.37 10.49 187.36 10.6L187.05 14.96C187.04 15.2 186.97 15.39 186.83 15.53C186.69 15.66 186.51 15.73 186.28 15.73C186.06 15.73 185.88 15.66 185.75 15.5C185.61 15.35 185.56 15.16 185.58 14.92L185.61 14.35C185.39 14.81 185.1 15.16 184.72 15.4C184.34 15.64 183.9 15.76 183.4 15.76C182.65 15.76 182.03 15.54 181.55 15.1C181.06 14.65 180.82 14.08 180.82 13.39C180.82 12.76 180.97 12.26 181.27 11.89C181.56 11.53 182.03 11.26 182.68 11.09C183.33 10.92 184.21 10.84 185.3 10.84L185.85 10.84L185.88 10.42C185.92 9.77 185.82 9.31 185.58 9.01C185.33 8.71 184.93 8.56 184.38 8.56C183.7 8.56 182.96 8.81 182.14 9.3C182.05 9.36 181.95 9.39 181.83 9.39C181.68 9.39 181.55 9.32 181.45 9.2C181.35 9.08 181.3 8.93 181.3 8.76C181.3 8.49 181.42 8.27 181.68 8.09C182.05 7.82 182.48 7.6 182.99 7.44C183.5 7.29 184.01 7.21 184.53 7.21C186.43 7.21 187.37 8.18 187.37 10.11ZM195.48 7.94C195.91 8.42 196.13 9.13 196.13 10.08C196.13 10.3 196.12 10.47 196.11 10.59L195.81 14.92C195.79 15.18 195.7 15.38 195.55 15.52C195.41 15.66 195.21 15.73 194.98 15.73C194.74 15.73 194.56 15.66 194.43 15.52C194.29 15.38 194.24 15.18 194.26 14.92L194.56 10.67C194.57 10.59 194.58 10.47 194.58 10.31C194.58 9.17 194.08 8.59 193.08 8.59C192.44 8.59 191.94 8.8 191.56 9.22C191.19 9.63 190.98 10.21 190.93 10.96L190.64 14.92C190.62 15.18 190.53 15.38 190.38 15.52C190.23 15.66 190.04 15.73 189.81 15.73C189.57 15.73 189.39 15.66 189.26 15.52C189.14 15.38 189.08 15.18 189.09 14.92L189.59 8.02C189.6 7.78 189.69 7.59 189.85 7.45C190.02 7.31 190.21 7.24 190.44 7.24C190.65 7.24 190.82 7.31 190.94 7.45C191.07 7.58 191.12 7.77 191.11 8L191.07 8.59C191.32 8.15 191.67 7.81 192.1 7.57C192.54 7.33 193.03 7.21 193.57 7.21C194.41 7.21 195.04 7.45 195.48 7.94ZM204.1 14.45C204.22 14.58 204.28 14.75 204.28 14.94C204.28 15.14 204.2 15.33 204.04 15.49C203.88 15.66 203.71 15.75 203.51 15.75C203.33 15.75 203.17 15.66 203.02 15.49L199.63 11.8L199.4 14.94C199.38 15.2 199.29 15.39 199.14 15.53C198.99 15.66 198.8 15.73 198.59 15.73C198.36 15.73 198.18 15.66 198.04 15.51C197.89 15.37 197.83 15.16 197.85 14.9L198.6 4.46C198.61 4.2 198.7 4 198.86 3.87C199.03 3.73 199.22 3.66 199.43 3.66C199.66 3.66 199.84 3.74 199.97 3.88C200.1 4.02 200.16 4.22 200.15 4.49L199.68 11.09L203.3 7.53C203.44 7.37 203.61 7.29 203.79 7.29C203.97 7.29 204.13 7.37 204.27 7.52C204.41 7.67 204.48 7.84 204.48 8.04C204.48 8.24 204.4 8.42 204.25 8.58L201.33 11.39L204.1 14.45ZM215.89 3.8C215.97 3.89 216.01 4.02 215.99 4.18L215.71 8.14C215.68 8.49 215.53 8.67 215.24 8.67C215.1 8.67 215 8.63 214.93 8.54C214.86 8.45 214.83 8.32 214.85 8.14L215.03 5.62L213.98 7.56C213.91 7.69 213.83 7.78 213.76 7.83C213.69 7.89 213.61 7.91 213.51 7.91C213.42 7.91 213.34 7.89 213.28 7.83C213.22 7.78 213.17 7.69 213.12 7.56L212.33 5.69L212.15 8.14C212.14 8.32 212.1 8.45 212.01 8.54C211.93 8.63 211.82 8.67 211.67 8.67C211.54 8.67 211.44 8.63 211.37 8.54C211.3 8.45 211.26 8.32 211.27 8.14L211.56 4.18C211.57 4.02 211.63 3.89 211.72 3.79C211.82 3.7 211.93 3.66 212.06 3.66C212.24 3.66 212.38 3.78 212.48 4.02L213.58 6.75L215.08 4.02C215.21 3.78 215.38 3.66 215.57 3.66C215.7 3.66 215.8 3.7 215.89 3.8L215.89 3.8ZM211 4.12C211 4.43 210.84 4.59 210.51 4.59L209.47 4.59L209.21 8.15C209.2 8.31 209.15 8.44 209.05 8.53C208.95 8.63 208.82 8.67 208.68 8.67C208.54 8.67 208.43 8.63 208.34 8.53C208.25 8.44 208.21 8.31 208.21 8.15L208.48 4.59L207.45 4.59C207.16 4.59 207.02 4.45 207.02 4.17C207.02 3.86 207.18 3.7 207.5 3.7L210.57 3.7C210.86 3.7 211 3.84 211 4.12Z" fill="#FFFFFF" fill-opacity="1.000000" fill-rule="evenodd"/>
</svg>
