<svg width="102.000000" height="40.000000" viewBox="0 0 102 40" fill="none" xmlns="http://www.w3.org/2000/svg" xmlns:xlink="http://www.w3.org/1999/xlink">
	<desc>
			Created with Pixso.
	</desc>
	<defs/>
	<path d="M68.53 25.14C68.82 25.38 68.98 25.75 68.96 26.13C68.96 27.19 68.34 27.72 67.1 27.72L56.41 27.72C55.59 27.77 54.88 27.15 54.83 26.34C54.83 26.29 54.83 26.24 54.83 26.19C54.83 25.64 55.06 25.12 55.46 24.75L64.28 15.35L57.45 15.35C57.01 15.38 56.56 15.25 56.21 14.99C55.91 14.73 55.76 14.36 55.78 13.97C55.78 12.93 56.4 12.41 57.64 12.41L67.85 12.41C68.28 12.39 68.71 12.55 69.01 12.86C69.28 13.15 69.44 13.54 69.43 13.94C69.42 14.49 69.19 15.02 68.8 15.41L60.01 24.78L67.28 24.78C67.73 24.75 68.17 24.87 68.53 25.14ZM74.17 18.67L81.38 18.67C81.47 17.64 81.18 16.6 80.56 15.77C79.95 15.1 79.07 14.74 78.16 14.79C75.92 14.79 74.6 16.08 74.17 18.67L74.17 18.67ZM84.37 20.41C84.12 20.65 83.78 20.78 83.44 20.77L74.05 20.77C74.02 21.93 74.44 23.05 75.23 23.9C76.07 24.65 77.18 25.03 78.31 24.97C78.99 24.98 79.67 24.88 80.32 24.7C80.95 24.51 81.55 24.24 82.11 23.9C82.35 23.76 82.62 23.69 82.9 23.68C83.22 23.67 83.54 23.81 83.73 24.07C83.94 24.35 84.05 24.69 84.03 25.03C84.04 25.63 83.74 26.19 83.24 26.53C82.56 27 81.79 27.36 80.98 27.57C80.03 27.84 79.05 27.98 78.06 27.97C76.63 28.01 75.21 27.69 73.92 27.05C72.77 26.46 71.82 25.55 71.19 24.43C70.52 23.22 70.19 21.86 70.22 20.48C70.2 18.97 70.53 17.48 71.2 16.12C71.81 14.88 72.77 13.84 73.95 13.11C75.17 12.38 76.57 12 78 12.03C79.86 11.92 81.68 12.61 82.98 13.94C84.23 15.47 84.86 17.42 84.73 19.39C84.76 19.76 84.62 20.13 84.37 20.41L84.37 20.41ZM100.64 13.42C101.61 14.57 102.09 16.05 101.98 17.54C101.98 17.94 101.97 18.24 101.95 18.45L101.31 26.03C101.3 26.56 101.07 27.05 100.68 27.41C100.28 27.75 99.76 27.93 99.23 27.91C98.71 27.94 98.19 27.76 97.8 27.41C97.46 27.04 97.29 26.53 97.36 26.03L98 18.61C98.16 16.29 97.24 15.13 95.22 15.13C94.2 15.08 93.21 15.45 92.5 16.16C91.8 16.97 91.39 17.98 91.36 19.05L90.76 26.03C90.74 26.56 90.52 27.05 90.13 27.41C89.72 27.75 89.2 27.93 88.67 27.91C88.16 27.94 87.64 27.76 87.26 27.41C86.93 27.03 86.76 26.53 86.81 26.03L87.82 13.88C87.82 13.37 88.05 12.9 88.45 12.58C88.87 12.25 89.4 12.08 89.94 12.09C90.43 12.06 90.9 12.23 91.26 12.56C91.59 12.9 91.73 13.36 91.64 13.81L91.61 14.41C92.15 13.65 92.88 13.05 93.73 12.66C94.66 12.23 95.67 12.01 96.7 12.03C98.15 11.93 99.58 12.43 100.64 13.42L100.64 13.42ZM38.44 11.6C36.83 9.14 33.61 8.26 30.96 9.55C28.12 10.98 26.99 14.42 28.42 17.23C29.25 18.83 30.78 19.96 32.57 20.27C32.35 27.05 26.63 32.37 19.78 32.16C13.14 31.95 7.84 26.58 7.78 19.99C7.77 14.92 10.96 10.37 15.76 8.61C16.68 8.28 17.22 7.32 17.01 6.37L16.99 6.31C16.76 5.27 17.42 4.24 18.46 4.01C18.55 3.99 18.64 3.98 18.72 3.97C19.2 3.92 19.69 3.9 20.18 3.9C20.78 3.9 21.38 3.94 21.98 4C23.07 4.12 24.04 3.34 24.16 2.27C24.16 2.23 24.17 2.2 24.17 2.16C24.2 1.1 23.38 0.19 22.31 0.11C21.6 0.03 20.89 0 20.18 0C9.03 0 0 8.95 0 20C0 31.04 9.03 40 20.18 40C31.33 40 40.36 31.04 40.36 20C40.36 18.04 39.96 13.83 38.44 11.6Z" fill="#000000" fill-opacity="1.000000" fill-rule="evenodd"/>
	<path d="M27.86 1.51C29.02 1.51 29.96 2.44 29.96 3.59C29.96 4.73 29.02 5.66 27.86 5.66C26.71 5.66 25.77 4.73 25.77 3.59C25.77 2.44 26.71 1.51 27.86 1.51Z" fill="#000000" fill-opacity="1.000000" fill-rule="evenodd"/>
</svg>
