<svg width="24.000000" height="24.000000" viewBox="0 0 24 24" fill="none" xmlns="http://www.w3.org/2000/svg" xmlns:xlink="http://www.w3.org/1999/xlink">
	<desc>
			Created with Pixso.
	</desc>
	<defs/>
	<rect x="-0.000122" width="23.999901" height="23.999901" fill="#C4C4C4" fill-opacity="0"/>
	<path d="M12.26 0C2.68 9.23 8.1 22.12 23.99 19.31C23.99 19.31 11.4 29.42 2.68 19.93C-1.88 14.97 -1.81 0.64 12.26 0Z" fill="#000000" fill-opacity="1.000000" fill-rule="evenodd"/>
	<path d="M15.2 5.59C14.99 5.59 14.89 5.49 14.89 5.28L14.89 3.46L13.1 3.46C12.9 3.46 12.79 3.36 12.79 3.17C12.79 2.97 12.9 2.87 13.1 2.87L14.89 2.87L14.89 1.11C14.89 0.9 14.99 0.8 15.2 0.8C15.4 0.8 15.5 0.9 15.5 1.11L15.5 2.87L17.29 2.87C17.49 2.87 17.59 2.97 17.59 3.17C17.59 3.36 17.49 3.46 17.29 3.46L15.5 3.46L15.5 5.28C15.5 5.49 15.4 5.59 15.2 5.59Z" fill="#000000" fill-opacity="1.000000" fill-rule="nonzero"/>
	<path d="M21.19 8.8C21.02 8.8 20.94 8.71 20.94 8.53L20.94 7.02L19.45 7.02C19.28 7.02 19.19 6.94 19.19 6.77C19.19 6.61 19.28 6.52 19.45 6.52L20.94 6.52L20.94 5.06C20.94 4.88 21.02 4.8 21.19 4.8C21.36 4.8 21.45 4.88 21.45 5.06L21.45 6.52L22.94 6.52C23.11 6.52 23.19 6.61 23.19 6.77C23.19 6.94 23.11 7.02 22.94 7.02L21.45 7.02L21.45 8.53C21.45 8.71 21.36 8.8 21.19 8.8Z" fill="#000000" fill-opacity="1.000000" fill-rule="nonzero"/>
	<path d="M13.2 12.79C13.02 12.79 12.94 12.71 12.94 12.53L12.94 11.02L11.45 11.02C11.28 11.02 11.2 10.94 11.2 10.77C11.2 10.61 11.28 10.52 11.45 10.52L12.94 10.52L12.94 9.06C12.94 8.88 13.02 8.79 13.2 8.79C13.36 8.79 13.45 8.88 13.45 9.06L13.45 10.52L14.94 10.52C15.11 10.52 15.2 10.61 15.2 10.77C15.2 10.94 15.11 11.02 14.94 11.02L13.45 11.02L13.45 12.53C13.45 12.71 13.36 12.79 13.2 12.79Z" fill="#000000" fill-opacity="1.000000" fill-rule="nonzero"/>
	<path d="M21.19 16.79C21.02 16.79 20.94 16.71 20.94 16.53L20.94 15.02L19.45 15.02C19.28 15.02 19.19 14.94 19.19 14.77C19.19 14.61 19.28 14.52 19.45 14.52L20.94 14.52L20.94 13.06C20.94 12.88 21.02 12.79 21.19 12.79C21.36 12.79 21.45 12.88 21.45 13.06L21.45 14.52L22.94 14.52C23.11 14.52 23.19 14.61 23.19 14.77C23.19 14.94 23.11 15.02 22.94 15.02L21.45 15.02L21.45 16.53C21.45 16.71 21.36 16.79 21.19 16.79Z" fill="#000000" fill-opacity="1.000000" fill-rule="nonzero"/>
</svg>
