<svg width="130.000000" height="47.000000" viewBox="0 0 130 47" fill="none" xmlns="http://www.w3.org/2000/svg" xmlns:xlink="http://www.w3.org/1999/xlink">
	<desc>
			Created with Pixso.
	</desc>
	<defs>
		<clipPath id="clip941_1043">
			<rect id="brand1" width="130.000000" height="47.000000" fill="white" fill-opacity="0"/>
		</clipPath>
	</defs>
	<g clip-path="url(#clip941_1043)">
		<path id="Vector" d="M53.72 22.09C52.1 21.21 50.4 20.69 48.74 19.98C48.06 19.69 47.38 19.35 46.72 18.98C45.94 18.54 45.37 17.75 45.38 16.4C45.38 14.96 45.81 13.77 46.67 13.12C47.64 12.39 48.68 12.47 49.73 12.64C51.49 12.92 52.25 14.55 52.59 16.38C52.64 16.66 52.7 16.93 52.75 17.19L56.81 17.19C57.03 14.15 55.85 11.29 54.22 9.64C53.23 8.64 52.13 8.15 50.95 7.82C48.96 7.27 47.04 7.44 45.15 8.53C42.83 9.87 40.9 13.05 41.15 17.62C41.25 19.47 41.76 20.96 42.59 22.24C43.6 23.8 44.93 24.53 46.26 25.15C47.63 25.78 49.05 26.19 50.42 26.85C51.16 27.21 51.92 27.71 52.54 28.42C53.68 29.71 53.64 31.98 52.55 33.38C52.04 34.04 51.44 34.44 50.76 34.59C49.82 34.79 48.91 34.93 47.94 34.63C46.32 34.12 44.98 32.61 44.73 30.19C44.69 29.84 44.63 29.16 44.63 29.16C43.25 29.16 41.73 29.15 40.43 29.15C40.43 29.15 40.45 29.94 40.47 30.14C40.69 34.15 42.15 36.83 44.48 38.48C45.73 39.37 47.08 39.72 48.47 39.78C50.42 39.87 52.3 39.63 54.1 38.33C56.98 36.25 58.22 31.47 57.26 27.19C56.68 24.59 55.35 22.97 53.72 22.09Z" fill="#000000" fill-opacity="1.000000" fill-rule="evenodd"/>
		<path id="Vector" d="M34.46 26.11C34.21 29.29 33.37 32.04 31.44 33.77C30.42 34.69 29.29 34.74 28.17 34.66C25.45 34.47 23.76 31.17 23.26 27.72C23.18 27.17 23.06 26.61 23.03 26.05C22.99 25.31 22.96 24.59 22.96 23.85C22.94 21.72 23.15 19.68 23.75 17.76C24.83 14.28 26.71 12.73 29.2 12.91C31.72 13.1 33.4 15.94 34.03 18.85C34.55 21.25 34.64 23.68 34.46 26.11ZM36.79 14.08C34.87 9.8 32.14 7.85 28.23 7.84C27.14 7.73 25.6 8.31 24.15 9.38C22.5 10.59 21.29 12.52 20.37 14.88C19.28 17.64 18.9 20.71 18.87 23.85C18.85 26.02 19.07 28.19 19.59 30.26C20.12 32.4 20.86 34.33 21.96 35.89C23.26 37.75 24.82 38.87 26.58 39.4C29.25 40.2 31.78 39.7 34.12 37.54C36.26 35.55 37.54 32.54 38.18 28.91C38.64 26.32 38.71 23.69 38.46 21.02C38.23 18.51 37.72 16.17 36.79 14.08Z" fill="#000000" fill-opacity="1.000000" fill-rule="evenodd"/>
		<path id="Vector" d="M64.31 33.65L64.31 25.63L72.81 25.63L72.81 20.77L64.31 20.77L64.31 13.73C67.78 13.7 71.36 13.75 74.89 13.71L74.89 8.33L60.13 8.33L60.13 39.07L74.92 39.07L74.89 33.65L64.31 33.65Z" fill="#000000" fill-opacity="1.000000" fill-rule="evenodd"/>
		<path id="Vector" d="M10.45 8.32C7.17 8.18 3.89 8.26 0.61 8.25L0 8.25L0 13.47L0.85 13.47C3.63 13.47 6.4 13.45 9.17 13.49C9.66 13.5 10.2 13.61 10.64 13.93C12.12 14.98 12.58 17.53 11.97 19.57C11.45 21.31 10.46 22.1 9.17 22.09C6.38 22.05 3.59 22.07 0.79 22.08L0 22.08L0 39.2L4.02 39.2C4.02 39.2 4.02 38.34 4.02 37.95C4.03 34.79 3.99 31.62 4.02 28.46C4.02 28.46 4.02 26.81 4.02 27.08C4.02 27.08 4.33 27.08 4.42 27.08C5.51 27.07 7.26 27.06 8.47 27.06C9.1 29.55 9.97 33.02 10.58 35.41C10.91 36.68 11.29 38.02 11.6 39.2L15.6 39.2C14.56 35.11 13.47 30.8 12.4 26.61C12.76 26.29 12.91 26.2 13.13 26.02C14.39 24.95 15.26 23.32 15.82 21.3C16.63 18.41 16.49 15.59 15.44 12.9C14.32 10.02 12.63 8.41 10.45 8.32Z" fill="#000000" fill-opacity="1.000000" fill-rule="evenodd"/>
		<path id="Vector" d="M88.18 22.85C87.97 22.85 87.49 22.87 87.49 22.87L87.49 25.62L94.22 25.62C94.14 28.57 93.61 31.07 92.43 33.21C91.1 35.64 89.42 37.17 87.31 37.34C86.47 37.4 85.59 37.23 84.76 36.97C82.67 36.32 81.23 34.29 80.16 31.62C79.48 29.92 79.17 28.05 79.19 26.05C79.23 23.31 78.98 20.55 79.54 17.85C80.47 13.29 82.77 10.15 85.79 9.61C88.47 9.13 90.8 10.54 92.53 13.84C92.99 14.73 93.36 15.73 93.79 16.72L95.47 16.72C95.4 16.31 95.38 16.08 95.32 15.87C94.9 14.35 94.37 12.92 93.63 11.69C91.89 8.8 89.78 7.03 87.13 7.02C86.67 7.02 86.2 6.96 85.74 7.04C85.1 7.15 84.45 7.24 83.86 7.57C81.8 8.71 80.12 10.61 78.98 13.49C78.21 15.43 77.59 17.46 77.56 19.8C77.54 21.58 77.47 23.36 77.49 25.14C77.51 27.19 77.59 29.23 78.17 31.14C79.66 36.01 82 39.22 85.61 39.88C87.52 40.22 89.39 39.85 91.08 38.41C93.21 36.6 94.7 33.95 95.48 30.41C95.93 28.4 95.97 26.33 95.95 24.24C95.95 23.72 95.96 23.26 95.96 22.85C93.67 22.85 90.3 22.85 88.18 22.85Z" fill="#000000" fill-opacity="1.000000" fill-rule="evenodd"/>
		<path id="Vector" d="M129.97 36.62C128.76 36.62 120.35 36.6 119.08 36.59L119.08 7.87L117.29 7.9C117.28 8.3 117.29 29.85 117.29 39.2C120.89 39.2 130 39.2 130 39.2L129.97 36.62Z" fill="#000000" fill-opacity="1.000000" fill-rule="evenodd"/>
		<path id="Vector" d="M102.38 25.31C103.55 20.57 104.76 15.62 105.93 10.87C106 10.87 106.17 10.87 106.23 10.87C106.23 10.87 108.17 18.74 108.56 20.37C108.95 21.97 109.38 23.72 109.76 25.31L102.38 25.31ZM109.63 17.23C108.99 14.61 107.98 10.5 107.27 7.5C106.41 7.5 105.43 7.51 105.04 7.51C102.49 17.58 99.65 28.81 97.07 39.2L98.94 39.2C99.82 35.6 101.44 29.03 101.67 28.17L110.48 28.17C111.19 31.11 112.34 35.7 113.19 39.2L115 39.2C114.47 36.96 113.57 33.26 113.22 31.81C112.02 26.95 110.82 22.1 109.63 17.23Z" fill="#000000" fill-opacity="1.000000" fill-rule="evenodd"/>
	</g>
</svg>
