<svg width="130.000000" height="47.000000" viewBox="0 0 130 47" fill="none" xmlns="http://www.w3.org/2000/svg" xmlns:xlink="http://www.w3.org/1999/xlink">
	<desc>
			Created with Pixso.
	</desc>
	<defs>
		<clipPath id="clip941_1029">
			<rect id="brand2" width="130.000000" height="47.000000" fill="white" fill-opacity="0"/>
		</clipPath>
	</defs>
	<g clip-path="url(#clip941_1029)">
		<path id="Vector" d="M25.38 24.6C28.03 24.6 30.66 24.62 33.3 24.59C33.93 24.58 34.12 23.89 33.74 23C32.81 20.78 31.5 19.59 29.84 19.52C27.78 19.43 25.74 21.75 25.38 24.6ZM25.26 29.54C26.26 35.02 30.57 36.73 33.05 32.76C33.33 32.3 33.58 31.73 33.98 31.52C34.64 31.18 35.24 31.4 35.7 32.26C36.17 33.12 36.21 34.26 35.73 35.33C34.79 37.39 33.49 38.68 31.99 39.34C28.81 40.75 26.02 39.53 23.86 35.5C21.7 31.46 21.32 26.76 22.69 21.94C24.05 17.14 26.52 14.7 29.77 14.59C33.37 14.46 36.6 18.69 37.38 24.36C37.74 26.93 36.46 29.51 34.76 29.53C31.89 29.57 29.02 29.54 26.15 29.54L25.26 29.54Z" fill="#000000" fill-opacity="1.000000" fill-rule="evenodd"/>
		<path id="Vector" d="M93.84 24.6C95.08 24.6 96.32 24.62 97.57 24.6C98.23 24.58 98.47 23.94 98.12 23.09C97.11 20.66 95.69 19.4 93.87 19.53C92.02 19.67 90.69 21.21 89.81 23.83C89.57 24.55 89.8 24.62 90.18 24.61C91.4 24.59 92.62 24.6 93.84 24.6ZM94.66 29.54C93.16 29.54 91.66 29.57 90.17 29.52C89.6 29.5 89.51 29.7 89.75 30.54C91.1 35.27 95.06 36.48 97.38 32.84C97.81 32.18 98.22 31.46 98.87 31.53C99.42 31.59 99.89 31.92 100.16 32.81C100.46 33.82 100.36 34.75 99.97 35.59C99.18 37.27 98.11 38.4 96.9 39.09C93.82 40.86 91 39.95 88.66 36.32C86.44 32.89 85.74 28.53 86.59 23.78C87.47 18.83 89.6 15.78 92.73 14.78C96.63 13.53 100.56 17.56 101.62 23.77C102.15 26.86 100.91 29.51 98.93 29.54C97.51 29.55 96.09 29.54 94.66 29.54Z" fill="#000000" fill-opacity="1.000000" fill-rule="evenodd"/>
		<path id="Vector" d="M13.32 21.15C11.97 21.15 10.63 21.14 9.28 21.15C8.21 21.16 7.53 22.12 7.55 23.57C7.57 25.03 8.23 25.92 9.31 25.92C11.57 25.93 13.83 25.91 16.09 25.93C17.01 25.94 17.18 26.39 16.88 27.76C15.75 32.79 12.51 35.92 9.13 35.22C5.1 34.39 2.29 28.13 2.99 21.51C3.67 15.07 7.63 10.78 11.6 12.16C12.98 12.64 14.13 13.74 15.17 15.26C16.15 16.69 17.45 16.07 17.7 14.1C17.86 12.91 17.42 12.14 16.93 11.47C13.84 7.25 10.33 6.03 6.56 8.34C2.76 10.66 0.53 15.28 0.06 21.87C-0.56 30.56 3.28 38.59 8.56 39.82C13.97 41.08 19.04 35.29 20.04 26.71C20.4 23.59 19.18 21.18 17.21 21.15C15.91 21.13 14.62 21.15 13.32 21.15Z" fill="#000000" fill-opacity="1.000000" fill-rule="evenodd"/>
		<path id="Vector" d="M110.06 14.64C108.29 14.57 106.69 15.39 105.28 17.06C103.91 18.68 103.34 20.96 103.69 23.66C104.03 26.24 105.03 27.94 106.66 28.54C108.34 29.15 110.03 29.7 111.71 30.27C112.31 30.48 112.85 30.76 112.97 31.92C113.1 33.11 112.66 33.74 112.09 34.23C111.89 34.4 111.68 34.56 111.47 34.68C109.42 35.84 107.76 34.67 106.28 32.4C105.52 31.24 104.67 31.17 104.04 32.14C103.45 33.07 103.46 34.59 104.08 35.81C106.55 40.74 111.94 41.44 114.86 37.21C116.08 35.44 116.59 33.27 116.16 30.67C115.73 28.1 114.65 26.59 113.04 26.03C111.38 25.45 109.72 24.87 108.06 24.28C107.45 24.07 106.95 23.55 106.89 22.46C106.83 21.39 107.25 20.77 107.82 20.32C109.73 18.83 112.04 19.49 113.48 21.98C114.24 23.3 115.12 23.49 115.81 22.48C116.51 21.46 116.48 19.87 115.69 18.57C114.15 16 112.27 14.68 110.06 14.64Z" fill="#000000" fill-opacity="1.000000" fill-rule="evenodd"/>
		<path id="Vector" d="M121.25 24.42C121.29 26.26 121.15 28.35 121.47 30.42C122.25 35.47 125.18 39.6 128.21 39.88C129.16 39.97 129.82 39.22 129.93 37.9C130.06 36.45 129.59 35.42 128.63 35.1C128.46 35.04 128.28 34.99 128.11 34.93C125.89 34.22 124.23 30.97 124.23 27.3C124.22 25 124.24 22.69 124.21 20.39C124.2 19.62 124.3 19.34 124.83 19.36C126.02 19.43 127.21 19.39 128.41 19.38C129.37 19.37 129.99 18.44 130 17.02C130 15.59 129.39 14.67 128.42 14.66C127.25 14.64 126.08 14.6 124.91 14.68C124.33 14.71 124.1 14.49 124.14 13.48C124.19 12.17 124.16 10.85 124.15 9.53C124.14 7.95 123.57 6.99 122.68 7.01C121.82 7.02 121.27 7.96 121.25 9.48C121.24 10.22 121.26 10.96 121.24 11.7C121.22 12.64 121.48 13.8 121.13 14.44C120.8 15.05 120.08 14.59 119.53 14.65C118.73 14.74 118.16 15.68 118.15 16.96C118.14 18.28 118.73 19.32 119.55 19.38C119.85 19.4 120.16 19.44 120.46 19.37C121.07 19.24 121.33 19.51 121.26 20.6C121.19 21.78 121.25 22.98 121.25 24.42Z" fill="#000000" fill-opacity="1.000000" fill-rule="evenodd"/>
		<path id="Vector" d="M61.78 17.18C61.63 17 61.69 16.78 61.67 16.6C61.48 15.24 60.85 14.52 59.99 14.66C59.26 14.79 58.77 15.7 58.77 17.05C58.76 23.87 58.77 30.69 58.77 37.51C58.77 38.58 59.07 39.31 59.67 39.71C60.68 40.38 61.67 39.25 61.69 37.37C61.71 34.2 61.7 31.04 61.69 27.88C61.68 26.92 61.76 25.99 61.92 25.09C62.48 22.05 63.78 20.33 65.65 19.56C66.65 19.15 67.07 18.01 66.85 16.54C66.64 15.23 65.88 14.59 64.93 14.9C63.77 15.27 62.75 16.14 61.78 17.18Z" fill="#000000" fill-opacity="1.000000" fill-rule="evenodd"/>
		<path id="Vector" d="M13.32 21.15C14.62 21.15 15.91 21.13 17.21 21.15C19.18 21.18 20.4 23.59 20.04 26.71C19.04 35.29 13.97 41.08 8.56 39.82C3.28 38.59 -0.56 30.56 0.06 21.87C0.53 15.28 2.76 10.66 6.56 8.34C10.33 6.03 13.84 7.25 16.93 11.47C17.42 12.14 17.86 12.91 17.7 14.1C17.45 16.07 16.15 16.69 15.17 15.26C14.13 13.74 12.98 12.64 11.6 12.16C7.63 10.78 3.67 15.07 2.99 21.51C2.29 28.13 5.1 34.39 9.13 35.22C12.51 35.92 15.75 32.79 16.88 27.76C17.18 26.39 17.01 25.94 16.09 25.93C13.83 25.91 11.57 25.93 9.31 25.92C8.23 25.92 7.57 25.03 7.55 23.57C7.53 22.12 8.21 21.16 9.28 21.15C10.63 21.14 11.97 21.15 13.32 21.15Z" fill="#000000" fill-opacity="1.000000" fill-rule="evenodd"/>
		<path id="Vector" d="M81.37 27.21C81.37 22.97 79.24 19.52 76.63 19.51C74.04 19.51 71.85 23 71.84 27.17C71.82 31.56 73.97 35.08 76.63 35.04C79.3 35 81.37 31.57 81.37 27.21ZM71.76 37.32C71.73 37.48 71.7 37.62 71.67 37.77C71.44 39.32 70.89 40.01 70.01 39.86C69.24 39.72 68.74 38.73 68.74 37.23C68.73 32.34 68.73 27.45 68.73 22.56C68.73 18.28 68.73 14.01 68.74 9.74C68.74 8.25 69.16 7.3 69.89 7.06C70.88 6.73 71.67 7.78 71.68 9.53C71.7 12.03 71.68 14.54 71.68 17.32C73.6 14.98 75.69 14.22 77.91 14.79C80.15 15.36 81.92 17.26 83.18 20.32C85.12 25.07 84.76 31.68 82.37 35.81C79.59 40.61 76.04 41.13 71.76 37.32Z" fill="#000000" fill-opacity="1.000000" fill-rule="evenodd"/>
		<path id="Vector" d="M47.11 34.96C49.8 34.97 51.92 31.62 51.93 27.32C51.94 23.01 49.84 19.55 47.18 19.51C44.52 19.47 42.35 22.99 42.35 27.34C42.35 31.57 44.47 34.95 47.11 34.96ZM52.02 17.25C52.18 15.56 52.61 14.75 53.4 14.66C54.27 14.55 54.97 15.47 54.98 16.89C55 23.83 55.01 30.78 55 37.73C55 38.82 54.48 39.69 53.85 39.87C53.13 40.06 52.51 39.55 52.23 38.5C52.13 38.14 52.09 37.74 52.02 37.36C47.46 41.26 43.59 40.45 40.96 35.05C38.61 30.24 38.76 23.49 41.34 18.76C43.42 14.93 47.76 12.36 52.02 17.25Z" fill="#000000" fill-opacity="1.000000" fill-rule="evenodd"/>
		<path id="Vector" d="M110.06 14.64C112.27 14.68 114.15 16 115.69 18.57C116.48 19.87 116.51 21.46 115.81 22.48C115.12 23.49 114.24 23.3 113.48 21.98C112.04 19.49 109.73 18.83 107.82 20.32C107.25 20.77 106.83 21.39 106.89 22.46C106.95 23.55 107.45 24.07 108.06 24.28C109.72 24.87 111.38 25.45 113.04 26.03C114.65 26.59 115.73 28.1 116.16 30.67C116.59 33.27 116.08 35.44 114.86 37.21C111.94 41.44 106.55 40.74 104.08 35.81C103.46 34.59 103.45 33.07 104.04 32.14C104.67 31.17 105.52 31.24 106.28 32.4C107.76 34.67 109.42 35.84 111.47 34.68C111.68 34.56 111.89 34.4 112.09 34.23C112.66 33.74 113.1 33.11 112.97 31.92C112.85 30.76 112.31 30.48 111.71 30.27C110.03 29.7 108.34 29.15 106.66 28.54C105.03 27.94 104.03 26.24 103.69 23.66C103.34 20.96 103.91 18.68 105.28 17.06C106.69 15.39 108.29 14.57 110.06 14.64Z" fill="#000000" fill-opacity="1.000000" fill-rule="evenodd"/>
		<path id="Vector" d="M121.25 24.42C121.25 22.98 121.19 21.78 121.26 20.6C121.33 19.51 121.07 19.24 120.46 19.37C120.16 19.44 119.85 19.4 119.55 19.38C118.73 19.32 118.14 18.28 118.15 16.96C118.16 15.68 118.73 14.74 119.53 14.65C120.08 14.59 120.8 15.05 121.13 14.44C121.48 13.8 121.22 12.64 121.24 11.7C121.26 10.96 121.24 10.22 121.25 9.48C121.27 7.96 121.82 7.02 122.68 7.01C123.57 6.99 124.14 7.95 124.15 9.53C124.16 10.85 124.19 12.17 124.14 13.48C124.1 14.49 124.33 14.71 124.91 14.68C126.08 14.6 127.25 14.64 128.42 14.66C129.39 14.67 130 15.59 130 17.02C129.99 18.44 129.37 19.37 128.41 19.38C127.21 19.39 126.02 19.43 124.83 19.36C124.3 19.34 124.2 19.62 124.21 20.39C124.24 22.69 124.22 25 124.23 27.3C124.23 30.97 125.89 34.22 128.11 34.93C128.28 34.99 128.46 35.04 128.63 35.1C129.59 35.42 130.06 36.45 129.93 37.9C129.82 39.22 129.16 39.97 128.21 39.88C125.18 39.6 122.25 35.47 121.47 30.42C121.15 28.35 121.29 26.26 121.25 24.42Z" fill="#000000" fill-opacity="1.000000" fill-rule="evenodd"/>
		<path id="Vector" d="M61.78 17.18C62.75 16.14 63.77 15.27 64.93 14.9C65.88 14.59 66.64 15.23 66.85 16.54C67.07 18.01 66.65 19.15 65.65 19.56C63.78 20.33 62.48 22.05 61.92 25.09C61.76 25.99 61.68 26.92 61.69 27.88C61.7 31.04 61.71 34.2 61.69 37.37C61.67 39.25 60.68 40.38 59.67 39.71C59.07 39.31 58.77 38.58 58.77 37.51C58.77 30.69 58.76 23.87 58.77 17.05C58.77 15.7 59.26 14.79 59.99 14.66C60.85 14.52 61.48 15.24 61.67 16.6C61.69 16.78 61.63 17 61.78 17.18Z" fill="#000000" fill-opacity="1.000000" fill-rule="evenodd"/>
	</g>
</svg>
