<svg width="130.000000" height="47.000000" viewBox="0 0 130 47" fill="none" xmlns="http://www.w3.org/2000/svg" xmlns:xlink="http://www.w3.org/1999/xlink">
	<desc>
			Created with Pixso.
	</desc>
	<defs>
		<clipPath id="clip941_1026">
			<rect id="brand3" width="130.000000" height="47.000000" fill="white" fill-opacity="0"/>
		</clipPath>
	</defs>
	<g clip-path="url(#clip941_1026)">
		<path id="Vector" d="M47.4 21.52C47.53 19.32 49.98 17.63 52.87 17.73L52.95 17.73C55.52 17.61 57.73 19.09 57.89 21.04C57.9 21.2 57.9 21.36 57.88 21.52L47.4 21.52ZM52.94 14.29C46 14.29 42.97 17.82 42 20.8C41.73 21.6 41.6 22.43 41.6 23.26C41.56 25.22 42.34 27.15 43.83 28.76C46.08 30.95 49.54 32.24 53.21 32.24C56.96 32.34 59.46 31.86 61.37 31.04C61.76 30.85 61.94 30.5 61.83 30.17L61.83 27.88C61.83 27.41 61.45 27.19 60.92 27.47C58.68 28.56 56.02 29.05 53.38 28.85C50.26 28.82 47.66 27.03 47.32 24.68L62.73 24.68C63.08 24.68 63.36 24.46 63.37 24.2C63.64 21.01 62.42 14.29 52.94 14.29ZM15.58 29.11L8.81 29.11C7.94 29.09 7.1 28.87 6.41 28.47C5.68 28.08 5.26 27.45 5.27 26.78C5.27 25.85 6.1 24 10.22 24L15.58 24L15.58 29.11ZM20.62 21.49C20.62 19.14 19.93 17.36 18.44 16.13C16.95 14.9 13.96 14.29 11.18 14.29C8.4 14.28 5.66 14.84 3.25 15.89C3.1 15.96 3 16.09 3.01 16.22L3.22 18.81C3.27 19.06 3.59 19.23 3.92 19.18C4.03 19.17 4.13 19.13 4.21 19.08C7.61 17.49 11.69 17.19 13.77 17.99C14.93 18.5 15.63 19.45 15.58 20.47L15.58 20.85L9.92 20.85C7.48 20.85 0.01 21.54 0.01 26.74L0.01 26.79C-0.11 28.4 0.79 29.95 2.43 30.97C4.19 31.91 6.33 32.38 8.48 32.28L19.95 32.28C20.32 32.28 20.62 32.06 20.62 31.78L20.62 21.47L20.62 21.49ZM77.58 28.81C74.77 28.81 72.75 27.25 71.9 25.32C71.3 23.99 71.3 22.54 71.9 21.2C72.75 19.27 74.77 17.71 77.58 17.71C83.84 17.71 84.05 22.56 84.05 23.26C84.05 23.96 83.84 28.81 77.58 28.81ZM89.19 23.27C89.24 21.3 88.46 19.38 86.96 17.77C82.94 13.84 75.48 13.13 70.29 16.18C69.51 16.64 68.8 17.17 68.19 17.77C65.17 21.08 65.17 25.46 68.19 28.76C70.41 30.99 73.89 32.29 77.58 32.25C79.95 32.25 82.28 31.72 84.26 30.72L84.26 32.9C84.26 35.84 80.86 36.38 78.68 36.48C77.18 36.52 75.69 36.46 74.2 36.3C73.6 36.23 73.19 36.3 73.19 36.78L73.19 39.4C73.2 39.64 73.48 39.83 73.8 39.82C78.85 40.15 82.26 40.08 84.81 38.98C86.6 38.17 87.93 36.89 88.54 35.38C88.99 34.22 89.21 33.01 89.18 31.8L89.18 23.27L89.19 23.27ZM105.89 15.3L105.89 17.36C105.94 17.66 105.66 17.93 105.28 17.97C105.18 17.98 105.07 17.97 104.98 17.95C100.57 17.26 97.86 18.75 97.86 21.83L97.86 31.8C97.86 32.08 97.56 32.3 97.19 32.3L93.29 32.3C92.92 32.3 92.62 32.08 92.62 31.8L92.62 21.62C92.57 19.67 93.62 17.8 95.49 16.47C97.4 15.06 99.96 14.27 102.63 14.29C103.54 14.29 104.45 14.35 105.35 14.48C105.81 14.59 105.88 14.8 105.88 15.33L105.88 15.3L105.89 15.3ZM29.43 31.8C29.43 32.08 29.13 32.3 28.76 32.3L24.86 32.3C24.49 32.3 24.19 32.08 24.19 31.8L24.19 7.5C24.19 7.23 24.48 7 24.85 7L28.75 7C29.12 7 29.42 7.22 29.42 7.5L29.42 31.8L29.43 31.8ZM38.59 31.8C38.59 32.08 38.28 32.3 37.92 32.3L34.02 32.3C33.65 32.3 33.34 32.08 33.34 31.8L33.34 7.5C33.34 7.22 33.65 7 34.02 7L37.92 7C38.29 7 38.59 7.22 38.59 7.5L38.59 31.8ZM124.05 25.34C123.19 27.27 121.17 28.77 118.37 28.82C115.57 28.87 113.55 27.27 112.7 25.34C112.1 24 112.1 22.55 112.7 21.21C113.55 19.28 115.58 17.78 118.37 17.73C121.16 17.68 123.19 19.28 124.05 21.21C124.65 22.55 124.65 24 124.05 25.33L124.05 25.34ZM127.76 17.78C123.74 13.85 116.28 13.14 111.1 16.18C110.31 16.65 109.6 17.18 108.99 17.78C107.51 19.39 106.73 21.31 106.76 23.27C106.73 25.24 107.51 27.16 108.99 28.77C113.02 32.7 120.48 33.41 125.66 30.37C126.45 29.9 127.15 29.37 127.76 28.77C129.25 27.16 130.03 25.24 129.99 23.27C130.03 21.31 129.25 19.39 127.76 17.78Z" fill="#000000" fill-opacity="1.000000" fill-rule="evenodd"/>
	</g>
</svg>
