<svg width="130.000000" height="47.000000" viewBox="0 0 130 47" fill="none" xmlns="http://www.w3.org/2000/svg" xmlns:xlink="http://www.w3.org/1999/xlink">
	<desc>
			Created with Pixso.
	</desc>
	<defs>
		<clipPath id="clip941_1023">
			<rect id="brand4" width="130.000000" height="47.000000" fill="white" fill-opacity="0"/>
		</clipPath>
	</defs>
	<g clip-path="url(#clip941_1023)">
		<path id="Vector" d="M32.44 31.58L32.44 9.73L44.26 9.73L44.26 12.47L34.88 12.47L34.88 19.19L43.31 19.19L43.31 21.93L34.88 21.93L34.88 28.78L44.92 28.78L44.92 31.52L32.44 31.52L32.44 31.58ZM57.35 31.58L53.29 25.78L49.22 31.58L46.36 31.58L51.91 23.82L46.06 15.8L49.28 15.8L53.29 21.8L57.35 15.8L60.51 15.8L54.96 23.82L60.22 31.58L57.35 31.58ZM64.16 29.23L64.16 40L61.71 40L61.71 23.89C61.71 19.78 64.58 15.41 69.06 15.41C73.6 15.41 77 18.54 77 23.69C77 28.71 73.54 32.17 69.6 32.17C67.68 32.17 65.11 31.26 64.16 29.23ZM74.43 23.69C74.43 20.17 72.34 18.08 68.64 18.28C66.85 18.34 64.1 19.78 64.34 24.8C64.4 26.43 65.95 29.49 69.36 29.49C72.28 29.49 74.43 27.67 74.43 23.69ZM79.09 31.58L79.09 15.8L81.54 15.8L81.54 17.49C82.74 15.99 84.59 15.47 86.56 15.47L86.56 18.34C86.26 18.28 83.34 17.89 81.54 22.06L81.54 31.65L79.09 31.65L79.09 31.58ZM87.22 23.69C87.22 19.13 90.21 15.41 94.33 15.41C99.47 15.41 101.38 19.13 101.38 23.89L101.38 25.19L89.91 25.19C90.09 28.19 92.54 29.76 94.81 29.69C96.48 29.63 97.61 29.1 98.81 27.8L100.42 29.63C98.93 31.19 97.02 32.23 94.69 32.23C90.33 32.17 87.22 28.65 87.22 23.69ZM94.15 18.08C91.82 18.08 90.03 20.3 89.91 22.71L98.81 22.71C98.81 20.36 97.26 18.08 94.15 18.08ZM102.63 29.36L104.43 27.6C104.37 27.6 105.32 28.65 105.44 28.71C105.86 29.1 106.28 29.36 106.82 29.5C108.37 29.95 111.18 29.82 111.42 27.47C111.53 26.17 110.64 25.45 109.62 24.99C108.31 24.47 106.87 24.28 105.56 23.63C104.07 22.91 103.11 21.67 103.11 19.84C103.11 15.08 109.32 14.3 112.13 16.52C112.25 16.65 113.63 18.02 113.57 18.02L111.77 19.58C110.88 18.41 110.04 17.82 108.13 17.82C107.17 17.82 105.86 18.28 105.62 19.39C105.26 20.95 106.87 21.54 107.95 21.86C109.38 22.26 110.94 22.52 112.19 23.36C113.92 24.54 114.34 27.08 113.69 29.04C112.97 31.19 110.82 32.04 108.91 32.1C106.64 32.23 104.66 31.45 103.05 29.69C102.93 29.69 102.63 29.36 102.63 29.36ZM115.24 29.36L117.03 27.6C116.97 27.6 117.93 28.65 118.05 28.71C118.46 29.1 118.88 29.36 119.42 29.5C120.97 29.95 123.78 29.82 124.02 27.47C124.14 26.17 123.24 25.45 122.23 24.99C120.91 24.47 119.48 24.28 118.17 23.63C116.67 22.91 115.72 21.67 115.72 19.84C115.72 15.08 121.93 14.3 124.74 16.52C124.86 16.65 126.23 18.02 126.17 18.02L124.38 19.58C123.48 18.41 122.65 17.82 120.74 17.82C119.78 17.82 118.47 18.28 118.23 19.39C117.87 20.95 119.48 21.54 120.56 21.86C121.99 22.26 123.54 22.52 124.8 23.36C126.53 24.54 126.95 27.08 126.29 29.04C125.57 31.19 123.42 32.04 121.51 32.1C119.24 32.23 117.27 31.45 115.66 29.69C115.54 29.69 115.24 29.36 115.24 29.36L115.24 29.36ZM126.89 15.8L126.89 14.1L126.35 14.1L126.35 13.78L127.78 13.78L127.78 14.1L127.25 14.1L127.25 15.8L126.89 15.8ZM129.58 15.8L129.58 14.23L129.04 15.8L128.92 15.8L128.38 14.23L128.38 15.8L128.08 15.8L128.08 13.78L128.56 13.78L129.04 15.15L129.52 13.78L130 13.78L130 15.8L129.58 15.8ZM15.83 31.58L14.03 26.36L4.36 26.36L2.56 31.58L0 31.58L7.76 9.73L10.57 9.73L18.28 31.58L15.83 31.58ZM9.08 12.86L5.43 23.69L13.02 23.69L9.08 12.86ZM19.89 31.58L22.4 31.58L22.4 9.73L19.89 9.73L19.89 31.58ZM26.16 31.58L28.67 31.58L28.67 16.13L26.16 16.13L26.16 31.58ZM31.06 11.1L31.06 10.84C29.15 10.78 27.6 9.08 27.54 7L27.18 7C27.12 9.08 25.56 10.78 23.65 10.84L23.65 11.1C25.56 11.17 27.12 12.86 27.18 14.95L27.54 14.95C27.6 12.86 29.15 11.17 31.06 11.1Z" fill="#000000" fill-opacity="1.000000" fill-rule="evenodd"/>
	</g>
</svg>
