<svg width="130.000000" height="47.000000" viewBox="0 0 130 47" fill="none" xmlns="http://www.w3.org/2000/svg" xmlns:xlink="http://www.w3.org/1999/xlink">
	<desc>
			Created with Pixso.
	</desc>
	<defs>
		<clipPath id="clip941_1018">
			<rect id="brand5" width="130.000000" height="47.000000" fill="white" fill-opacity="0"/>
		</clipPath>
	</defs>
	<g clip-path="url(#clip941_1018)">
		<path id="Vector" d="M74.49 14.32C76.08 14.32 77.06 15.18 77.61 15.9L77.77 16.11L77.86 15.83C78.11 15.11 78.61 14.72 79.25 14.72L80.83 14.72L80.81 31.38C80.81 37.74 77.44 40 74.55 40C73.15 40 71.59 39.42 70.4 38.45L70.16 38.26L70.54 36.77L70.81 35.76C71.11 34.65 71.53 34.38 72.25 34.71C72.8 35.02 73.62 35.35 74.53 35.35C76.39 35.35 77.42 34.01 77.42 31.59L77.42 31.08L77.16 31.38C76.48 32.17 75.63 32.55 74.55 32.55C71.39 32.55 69.18 28.77 69.18 23.37C69.18 17.95 71.31 14.32 74.49 14.32ZM93.13 14.42C94.88 14.42 97.49 15.55 97.49 18.68L97.49 21.04L95.71 21.04C95.57 21.04 94.81 20.97 94.56 19.7L94.54 19.61C94.43 19.05 93.74 18.71 93.13 18.71C91.26 18.71 89.95 20.83 89.95 23.84C89.95 27.34 91.64 28.91 93.31 28.91C95.04 28.91 96.37 26.93 96.53 26.67L96.55 26.64L96.74 26.34L98.14 29.9L98.05 30.08C98.03 30.11 96.28 33.34 93.06 33.34C89.36 33.34 86.67 29.36 86.67 23.88C86.67 18.4 89.38 14.42 93.13 14.42ZM18.56 14.4C22.17 14.4 24.8 18.36 24.8 23.81C24.8 29.26 22.17 33.22 18.56 33.22C14.96 33.22 12.35 29.26 12.35 23.81C12.35 18.36 14.96 14.4 18.56 14.4ZM31.89 14.4C35.5 14.4 38.13 18.36 38.13 23.81C38.13 29.26 35.5 33.22 31.89 33.22C28.29 33.22 25.67 29.26 25.67 23.81C25.67 18.36 28.29 14.4 31.89 14.4ZM104.64 14.4C108.25 14.4 110.88 18.36 110.88 23.81C110.88 29.26 108.25 33.22 104.64 33.22C101.04 33.22 98.43 29.26 98.43 23.81C98.43 18.36 101.04 14.4 104.64 14.4ZM53 14.77C54.21 14.77 54.79 15.67 54.79 17.53L54.78 32.93L54.78 32.93L54.78 32.93L53.98 32.93L53.18 32.94C53.16 32.94 53.14 32.93 53.12 32.93L51.4 32.93L51.4 28.82L51.4 28.82L51.39 14.77L53 14.77ZM40.95 7.78C41.89 7.78 42.76 8.07 42.76 10.21L42.76 20.86L43.31 20.86C43.72 20.86 43.99 20.71 44.12 20.41L46.51 14.77L50.37 14.77L47.19 21.98C47.03 22.34 46.86 22.66 46.69 22.92L46.58 23.09L46.69 23.27C46.86 23.54 47.02 23.88 47.16 24.28L48.45 28.01L50.4 32.94L47.78 32.94C46.8 32.94 46.27 32.69 45.75 31.21L43.86 25.78C43.74 25.46 43.47 25.39 43.08 25.39L42.76 25.39L42.76 32.94L39.35 32.94L39.34 7.78L40.95 7.78L40.95 7.78ZM63.75 14.36C66.53 14.36 68 16.78 68 21.38L68 32.93L66.39 32.93C65.15 32.93 64.58 32.05 64.58 30.17L64.58 22.26C64.58 20.05 64.17 19.2 63.11 19.2C61.79 19.2 60.74 20.42 60.36 22.38C60.22 23.03 60.15 23.74 60.15 24.56L60.15 32.93L56.75 32.93L56.74 14.76L58.28 14.76C59.2 14.76 59.82 15.35 60 16.42L60.07 16.85L60.28 16.53C60.9 15.54 62.01 14.36 63.75 14.36ZM126.04 14.42L126.2 14.42C128.72 14.51 130 16.85 130 21.38L129.99 32.93L128.47 32.93C127.27 32.93 126.74 32.11 126.74 30.28L126.74 22.2C126.74 19.88 126.37 19.02 125.37 19.02C123.99 19.02 123.1 20.91 122.84 22.75C122.71 23.41 122.66 24.06 122.66 24.94L122.66 32.93L119.39 32.93L119.39 22.2C119.39 20.19 118.96 19.15 118.08 19.02C116.65 18.82 115.8 20.89 115.49 22.82C115.38 23.55 115.32 24.24 115.32 24.94L115.32 32.93L112.08 32.93L112.09 14.83L113.52 14.83C114.41 14.83 114.99 15.38 115.17 16.39L115.3 17.09L115.62 16.56C116.11 15.76 117.17 14.42 118.75 14.42C120.25 14.42 121.33 15.31 121.96 17.05L122.15 17.59L122.4 17.11C123.27 15.42 124.64 14.42 126.04 14.42L126.04 14.42ZM2.07 7.79L5.62 7.79C8.73 7.79 10.74 10.35 10.74 14.3C10.74 16.88 9.89 18.38 9.38 19.04L8.95 19.61L9.45 20.04C10.66 21.08 11.38 23.13 11.38 25.53C11.38 29.97 9.15 32.85 5.69 32.85L1.63 32.85L1.62 32.85L0 32.85L0 10.4C0 8.99 0.74 7.84 1.67 7.79L2.07 7.79ZM18.56 18.8C16.86 18.8 15.68 20.86 15.68 23.81C15.68 26.75 16.86 28.82 18.56 28.82C20.29 28.82 21.47 26.8 21.47 23.81C21.47 20.86 20.27 18.8 18.56 18.8L18.56 18.8ZM31.89 18.8C30.19 18.8 29 20.86 29 23.81C29 26.75 30.19 28.82 31.89 28.82C33.63 28.82 34.8 26.8 34.8 23.81C34.8 20.86 33.6 18.8 31.89 18.8L31.89 18.8ZM104.64 18.8C102.94 18.8 101.76 20.86 101.76 23.81C101.76 26.75 102.94 28.82 104.64 28.82C106.38 28.82 107.55 26.8 107.55 23.81C107.55 20.86 106.35 18.8 104.64 18.8L104.64 18.8ZM5.92 21.8L4.03 21.8C3.43 21.93 3.16 22.48 3.16 23.56L3.16 28.6L5.92 28.61C7.28 28.61 8.13 27.33 8.13 25.18C8.13 23.09 7.26 21.8 5.92 21.8ZM74.97 18.89C72.8 18.89 72.64 22.21 72.64 23.23C72.64 25.54 73.3 28.01 75.15 28.01C76.22 28.01 77.49 27.22 77.49 23.4C77.49 19.36 76.05 18.89 74.97 18.89L74.97 18.89ZM5.6 11.9L4.18 11.9C3.48 11.97 3.16 12.52 3.16 13.68L3.16 17.92L5.64 17.92C7.04 17.92 7.54 16.27 7.54 14.86C7.54 13.01 6.81 11.9 5.6 11.9Z" fill="#000000" fill-opacity="1.000000" fill-rule="evenodd"/>
		<path id="Vector" d="M86.5 31C86.5 32.1 85.6 33 84.5 33C83.39 33 82.5 32.1 82.5 31C82.5 29.89 83.39 29 84.5 29C85.6 29 86.5 29.89 86.5 31Z" fill="#000000" fill-opacity="1.000000" fill-rule="evenodd"/>
		<path id="Vector" d="M54.9 11C54.9 12.1 54 13 52.9 13C51.79 13 50.9 12.1 50.9 11C50.9 9.89 51.79 9 52.9 9C54 9 54.9 9.89 54.9 11Z" fill="#000000" fill-opacity="1.000000" fill-rule="evenodd"/>
	</g>
</svg>
