<svg width="130.000000" height="47.000000" viewBox="0 0 130 47" fill="none" xmlns="http://www.w3.org/2000/svg" xmlns:xlink="http://www.w3.org/1999/xlink">
	<desc>
			Created with Pixso.
	</desc>
	<defs>
		<clipPath id="clip941_1014">
			<rect id="brand6" width="130.000000" height="47.000000" fill="white" fill-opacity="0"/>
		</clipPath>
	</defs>
	<g clip-path="url(#clip941_1014)">
		<path id="Vector" d="M110.5 18.08C110.44 17.93 110.34 17.84 110.24 17.84L108.47 17.84C108.3 17.84 108.16 18.06 108.13 18.36L107.99 19.63C107.6 18.96 107.21 18.53 106.64 18.12L106.47 17.97C106.44 17.96 106.42 17.94 106.4 17.93C104.48 17.13 102.54 18.23 100.96 21.03C100.16 22.41 99.56 24.02 99.17 25.74L101.5 7.77C101.52 7.63 101.5 7.47 101.45 7.36C101.4 7.24 101.33 7.17 101.25 7.17L99.09 7.17C99.01 7.17 98.95 7.23 98.9 7.34L89.5 27.47C89.83 24.45 91.68 7.76 91.68 7.76C91.68 7.72 91.68 7.69 91.68 7.66C91.68 7.55 91.66 7.44 91.63 7.35C91.58 7.24 91.5 7.17 91.43 7.17L89.04 7.17C88.97 7.17 88.9 7.23 88.85 7.34L76.93 33.46C76.73 29.66 75.78 25.52 75.78 25.52C74.18 19.3 70.63 17.29 68.62 20.85L68.6 20.86L68.29 21.3C69.75 16.87 73.46 17.06 75.84 22.28C75.84 22.28 76.9 24.7 77.66 28.3C77.86 27.03 77.98 25.71 78.02 24.37C76.77 21.17 75.37 19.3 75.37 19.3C72.36 15.44 68.75 17.07 67.94 22.06L67.93 22.08L67.77 22.76C67.87 17.53 71.13 14.19 74.57 16.44C74.57 16.44 76.19 17.57 77.83 20.06C77.81 19.87 77.78 19.67 77.75 19.47C77.58 18.15 77.32 16.89 76.99 15.73C75.08 14.16 73.39 13.87 73.39 13.87C69.76 13.39 67.07 18.22 67.69 23.32L67.68 23.35L67.72 24.08C66.43 19.46 68.38 13.47 71.95 12.15C71.95 12.15 73.6 11.6 75.64 12.18C75.13 11.14 74.54 10.23 73.88 9.47C71.84 9.92 70.31 11.27 70.31 11.27C67.04 14.29 65.98 21.04 67.86 24.87L67.86 24.89L68.09 25.5C65.76 22.72 65.86 15.68 68.61 11.15C68.61 11.15 69.89 9.12 71.8 7.68C71.01 7.23 70.2 7 69.37 7C67.78 9.3 66.85 11.8 66.85 11.8C64.81 17.53 65.67 24.38 68.3 25.92L68.31 25.93L68.67 26.24C65.92 26.05 64.16 19.85 65.34 13.32C65.34 13.32 65.89 10.51 67.09 7.54C66.4 7.88 65.75 8.38 65.14 9C64.36 12.52 64.21 15.58 64.21 15.58C63.96 22.47 66.51 27.59 69.19 26.42L69.21 26.43L69.59 26.35C67.16 28.8 64 25.11 63.31 18.33C63.31 18.33 63.03 15.3 63.31 11.52C62.73 12.56 62.22 13.76 61.8 15.1C62.06 18.82 62.73 21.55 62.73 21.55C64.32 27.76 67.88 29.78 69.89 26.21L69.91 26.21L70.22 25.77C68.76 30.2 65.05 30 62.67 24.79C62.67 24.79 61.44 21.89 60.8 18.51C60.81 18.35 60.78 18.2 60.73 18.08C60.66 17.93 60.57 17.84 60.46 17.84L58.69 17.84C58.53 17.84 58.39 18.06 58.35 18.36C58.35 18.36 58.22 18.75 58.16 19.52C57.76 18.85 57.3 18.47 56.87 18.12L56.69 17.97C56.67 17.96 56.65 17.94 56.63 17.93C54.7 17.13 52.77 18.23 51.18 21.03C50.24 22.67 49.57 24.61 49.19 26.71L49.16 26.85L49.91 18.6C49.93 18.41 49.9 18.22 49.83 18.07C49.77 17.93 49.67 17.84 49.57 17.84L47.68 17.85C47.51 17.85 47.37 18.07 47.34 18.38L45.39 38.62C45.37 38.81 45.4 39 45.46 39.15C45.53 39.3 45.63 39.38 45.73 39.38L47.72 39.39C47.89 39.39 48.03 39.16 48.06 38.85L48.81 30.62C48.82 30.67 48.83 30.7 48.83 30.7C48.82 31.52 48.85 32.35 48.94 33.18C49.23 36.27 50.67 39.16 52.23 39.75C53.59 40.21 55.04 39.56 56.47 37.88C56.45 38.17 56.4 38.62 56.4 38.62C56.4 38.65 56.4 38.69 56.4 38.73C56.4 38.89 56.42 39.03 56.47 39.15C56.54 39.3 56.64 39.38 56.74 39.38L58.5 39.39C58.66 39.39 58.81 39.17 58.84 38.86L60.38 22.94C61.54 25.55 63.06 27.78 63.06 27.78C66.07 31.64 69.68 30.01 70.49 25.02L70.5 24.99L70.66 24.31C70.56 29.54 67.3 32.89 63.86 30.64C63.86 30.64 62.37 29.6 60.81 27.32C60.82 27.43 60.83 27.54 60.85 27.65C61.03 29.02 61.3 30.32 61.65 31.52C63.47 32.94 65.04 33.21 65.04 33.21C68.66 33.69 71.36 28.86 70.74 23.76L70.75 23.73L70.71 22.99C72 27.61 70.05 33.61 66.48 34.93C66.48 34.93 64.92 35.45 62.96 34.94C63.43 35.88 63.96 36.72 64.54 37.44C66.57 36.97 68.07 35.65 68.07 35.65C71.34 32.62 72.41 25.87 70.53 22.05L70.53 22.02L70.3 21.42C72.63 24.2 72.53 31.23 69.78 35.77C69.78 35.77 68.47 37.83 66.54 39.27C67.07 39.61 67.62 39.86 68.17 40L68.97 40C70.59 37.67 71.54 35.11 71.54 35.11C73.58 29.38 72.72 22.53 70.08 21L70.07 20.98L69.72 20.68C72.47 20.87 74.23 27.06 73.05 33.59C73.05 33.59 72.46 36.65 71.15 39.75C71.25 39.71 71.35 39.66 71.46 39.61C72.12 39.29 72.75 38.82 73.33 38.25C74.14 34.66 74.29 31.48 74.29 31.48C74.55 24.6 72 19.47 69.31 20.65L69.3 20.64L68.91 20.72C71.35 18.27 74.51 21.96 75.2 28.74C75.2 28.74 75.6 31.86 75.3 35.54C75.24 36.08 75.13 36.85 74.9 37.67C74.83 37.9 74.75 38.17 74.64 38.49L74.64 38.48C74.64 38.49 74.64 38.49 74.64 38.5C74.63 38.51 74.63 38.51 74.63 38.52C74.59 38.65 74.58 38.82 74.62 38.96C74.66 39.14 74.75 39.25 74.85 39.24L75.96 39.24C76.54 39.24 77.04 39.23 77.71 39.28C77.78 39.28 77.86 39.21 77.91 39.1L87.53 17.26C87.13 21.25 85.97 31.49 85.15 38.69C85.15 38.72 85.15 38.76 85.15 38.79C85.15 38.9 85.17 39.01 85.2 39.1C85.25 39.21 85.32 39.28 85.4 39.28L87.35 39.24C87.42 39.24 87.49 39.18 87.54 39.08C87.54 39.08 96.17 19.91 97.28 17.46C96.82 21.46 95.56 31.57 94.66 38.68C94.65 38.72 94.65 38.75 94.65 38.79C94.65 38.89 94.67 39 94.7 39.09C94.75 39.21 94.83 39.28 94.91 39.28L97.21 39.28C97.33 39.28 97.43 39.13 97.46 38.9L98.45 31.23L98.59 30.15C98.6 30.46 98.6 30.7 98.6 30.7C98.59 31.52 98.63 32.35 98.71 33.18C99 36.27 100.45 39.16 102 39.75C103.36 40.21 104.82 39.56 106.25 37.88L106.18 38.62C106.17 38.65 106.17 38.69 106.17 38.73C106.17 38.89 106.2 39.03 106.25 39.15C106.32 39.3 106.41 39.38 106.51 39.38L108.27 39.39C108.44 39.39 108.58 39.17 108.61 38.86L110.2 22.83L110.58 18.51C110.58 18.35 110.56 18.2 110.5 18.08ZM0 38.97L0 38.56C0.01 38.52 0.02 38.48 0.04 38.44L14.25 7.34C14.3 7.23 14.37 7.17 14.45 7.17L16.74 7.17C16.82 7.17 16.89 7.24 16.94 7.35C16.97 7.43 17 7.55 17 7.65C17 7.69 16.99 7.72 16.99 7.75C16.99 7.75 15.21 24.45 14.88 27.47C16 25.06 24.27 7.34 24.27 7.34C24.32 7.23 24.39 7.17 24.46 7.17L26.62 7.17C26.7 7.17 26.78 7.24 26.83 7.36C26.88 7.47 26.89 7.63 26.87 7.77L24.61 25.25C24.62 25.19 24.64 25.12 24.66 25.06C25.74 21.08 27.79 18.28 30.01 17.76C30.01 17.76 30.02 17.76 30.03 17.76C32.04 17.57 33.59 19.01 34.51 21.92L34.53 21.97C34.86 23.24 35.11 24.95 35.16 26.71C35.54 24.61 36.21 22.67 37.14 21.03C38.73 18.23 40.66 17.13 42.59 17.93C42.61 17.94 42.64 17.96 42.65 17.97L42.83 18.12C43.26 18.47 43.73 18.85 44.12 19.52C44.33 17.66 44.94 12.14 44.94 12.14C44.97 11.84 45.11 11.62 45.28 11.62L47.05 11.62C47.15 11.62 47.25 11.71 47.31 11.86C47.38 12 47.4 12.2 47.39 12.39L44.8 38.86C44.77 39.17 44.63 39.39 44.46 39.39L42.7 39.38C42.6 39.38 42.5 39.3 42.44 39.15C42.39 39.03 42.36 38.89 42.36 38.73C42.36 38.69 42.36 38.65 42.37 38.62C42.37 38.62 42.41 38.17 42.44 37.88C41.01 39.56 39.55 40.21 38.2 39.74C36.64 39.16 35.19 36.27 34.9 33.18C34.82 32.35 34.79 31.52 34.79 30.7C34.73 30.81 34.65 30.87 34.56 30.87L26.39 30.88C26.39 30.94 26.38 31 26.38 31.07C26.38 31.3 26.42 31.61 26.48 31.96L26.52 32.19C26.9 34 27.83 35.13 28.89 35.08C29.94 35.04 30.91 34.09 31.77 32.25C31.84 32.11 31.93 32.04 32.03 32.04L33.85 32.04C33.96 32.04 34.07 32.15 34.14 32.34C34.2 32.53 34.21 32.77 34.16 32.97C33.12 37.09 30.81 39.86 28.38 39.86C26.68 39.74 25.26 38.17 24.47 35.56C24.08 34.17 23.89 32.44 23.9 30.67L22.84 38.9C22.81 39.13 22.7 39.28 22.58 39.28L20.28 39.28C20.2 39.28 20.13 39.21 20.08 39.09C20.04 39 20.02 38.89 20.02 38.79C20.02 38.75 20.03 38.71 20.03 38.68C20.93 31.57 22.19 21.46 22.65 17.46L12.92 39.08C12.87 39.18 12.8 39.24 12.73 39.24L10.78 39.28C10.7 39.28 10.63 39.21 10.58 39.1C10.54 39.01 10.52 38.9 10.52 38.79C10.52 38.76 10.52 38.72 10.53 38.69C11.35 31.49 12.5 21.25 12.91 17.26L3.29 39.1C3.24 39.21 3.16 39.28 3.08 39.28C2.42 39.23 1.92 39.24 1.33 39.24L0.23 39.24C0.13 39.25 0.04 39.14 0 38.97ZM107.34 29.13C106.94 31.77 105.62 34.29 104.33 34.88C103.35 35.13 102.63 34.95 102.13 34.33C101.6 33.64 101.33 32.44 101.12 31.36C101.09 30.97 101.07 30.58 101.07 30.2C101.07 27.79 101.75 25.47 103 23.7C103.71 22.74 104.69 22.38 105.54 22.75C106.02 22.97 106.69 23.51 107.1 24.93C107.33 25.69 107.45 26.67 107.45 27.62C107.45 28.14 107.41 28.66 107.34 29.13ZM27.16 26.09L32.45 26C32.41 25.28 32.21 24.61 31.79 23.81C31.33 23.06 30.7 22.71 29.8 22.7C28.83 22.95 27.69 24.17 27.16 26.09ZM43.53 29.13C43.6 28.66 43.64 28.14 43.64 27.62C43.64 26.67 43.52 25.69 43.29 24.93C42.87 23.51 42.21 22.97 41.73 22.76C40.88 22.38 39.9 22.74 39.18 23.7C37.94 25.47 37.26 27.79 37.26 30.2C37.26 30.58 37.28 30.97 37.31 31.36C37.52 32.44 37.78 33.64 38.31 34.33C38.82 34.95 39.54 35.13 40.52 34.88C41.81 34.29 43.13 31.77 43.53 29.13ZM47.84 12.14L47.42 16.39C47.41 16.58 47.43 16.78 47.5 16.94C47.56 17.08 47.66 17.17 47.76 17.17L49.76 17.17C49.92 17.17 50.07 16.95 50.1 16.63L50.47 12.42C50.49 12.23 50.46 12.03 50.4 11.88C50.33 11.74 50.23 11.65 50.14 11.65L48.17 11.62C48.01 11.61 47.87 11.84 47.84 12.14ZM57.56 29.13C57.16 31.77 55.84 34.29 54.56 34.88C53.58 35.13 52.85 34.95 52.35 34.33C51.82 33.64 51.56 32.44 51.35 31.36C51.31 30.97 51.29 30.58 51.29 30.2C51.29 27.79 51.97 25.47 53.22 23.7C53.94 22.74 54.91 22.38 55.77 22.75C56.25 22.97 56.91 23.51 57.32 24.93C57.55 25.69 57.68 26.67 57.68 27.62C57.68 28.14 57.64 28.66 57.56 29.13ZM123.14 37.5L119.85 27.49C120.12 26.89 122.92 20.42 123.49 19.15L123.23 21.66C123.22 21.85 123.24 22.05 123.31 22.19C123.37 22.34 123.47 22.43 123.57 22.43L124.44 22.43C124.34 23.57 123.43 34.12 123.14 37.5ZM113.57 19.08L113.61 18.61C113.63 18.42 113.6 18.23 113.54 18.08C113.48 17.93 113.38 17.84 113.28 17.84L111.5 17.84C111.34 17.84 111.2 18.06 111.17 18.37L111.12 18.88L109.22 38.56C109.2 38.75 109.23 38.95 109.3 39.1C109.37 39.24 109.47 39.33 109.57 39.32L110.45 39.3L111.27 39.3C111.43 39.3 111.57 39.08 111.6 38.78L112.9 26.57C113.33 23.47 114.41 22.55 115.37 22.28C115.42 22.27 115.61 22.27 115.65 22.23C115 29.63 114.22 38.4 114.21 38.55C114.19 38.73 114.22 38.92 114.29 39.07C114.35 39.21 114.45 39.3 114.55 39.3L116.46 39.3C116.61 39.3 116.74 39.12 116.78 38.84C116.84 38.49 117.3 33.45 117.58 30.43C118.28 32.47 120.54 39 120.54 39C120.61 39.18 120.72 39.29 120.83 39.29L123.11 39.3C123.16 39.3 123.19 39.28 123.23 39.26C123.28 39.3 123.33 39.33 123.39 39.32L125.32 39.3C125.48 39.3 125.62 39.07 125.65 38.77L127.14 22.44L129.35 22.43C129.52 22.43 129.66 22.2 129.69 21.89L129.99 18.6C129.99 18.56 130 18.53 130 18.49C130 18.34 129.97 18.19 129.92 18.07C129.85 17.93 129.76 17.84 129.65 17.84L127.47 17.84C127.58 16.68 127.97 12.38 127.97 12.38C127.97 12.35 127.97 12.31 127.97 12.27C127.97 12.12 127.94 11.97 127.89 11.86C127.83 11.71 127.73 11.62 127.63 11.62L125.71 11.62C125.55 11.62 125.41 11.85 125.38 12.16C125.38 12.16 124.95 16.96 124.87 17.84C124.7 17.85 124.52 17.86 124.52 17.86L124.22 17.86L123.9 17.85C123.78 17.85 123.67 17.97 123.61 18.15C123.55 17.98 123.44 17.86 123.33 17.86L121.57 17.85L121.06 17.85C120.96 17.85 120.87 17.93 120.81 18.06C120.81 18.06 119.04 21.9 118.1 23.83C118.38 20.78 119.13 12.39 119.13 12.39C119.14 12.35 119.14 12.32 119.14 12.28C119.14 12.13 119.11 11.98 119.06 11.87C118.99 11.72 118.9 11.63 118.8 11.63L116.89 11.62C116.72 11.62 116.57 11.85 116.55 12.16C116.5 12.66 116.31 14.89 116.04 17.86L116.03 17.84C115.96 17.69 115.87 17.61 115.76 17.62C114.95 17.66 114.21 18.29 113.57 19.08Z" fill="#000000" fill-opacity="1.000000" fill-rule="evenodd"/>
		<path id="Vector" d="M73 23.5C73 25.43 71.43 27 69.5 27C67.56 27 66 25.43 66 23.5C66 21.56 67.56 20 69.5 20C71.43 20 73 21.56 73 23.5Z" fill="#000000" fill-opacity="1.000000" fill-rule="evenodd"/>
	</g>
</svg>
