<svg width="130.000000" height="47.000000" viewBox="0 0 130 47" fill="none" xmlns="http://www.w3.org/2000/svg" xmlns:xlink="http://www.w3.org/1999/xlink">
	<desc>
			Created with Pixso.
	</desc>
	<defs>
		<clipPath id="clip941_1006">
			<rect id="brand7" width="130.000000" height="47.000000" fill="white" fill-opacity="0"/>
		</clipPath>
	</defs>
	<g clip-path="url(#clip941_1006)">
		<path id="Vector" d="M11.89 14.84L11.89 7.63L26.72 7.63L30.77 26.92L34.88 7.63L39.4 7.63L32.82 38.73L28.77 38.73L23.67 14.84L19.83 14.84L19.83 38.73L15.46 38.73L15.46 14.84L11.89 14.84Z" fill="#000000" fill-opacity="1.000000" fill-rule="evenodd"/>
		<path id="Vector" d="M4.57 21.87L4.57 13.85C9.47 13.31 9.36 22.32 4.57 21.87ZM8.52 38.73L13.52 38.73L9.31 26.29C14.52 23.22 13.1 7.45 7.31 7.63L0 7.63L0 38.73L4.57 38.73L4.57 27.19L8.52 38.73ZM91.17 7.63L96.32 7.63L101.22 38.73L97.59 38.73L96.74 33.23L90.64 33.23L89.8 38.73L86.28 38.73L91.17 7.63L91.17 7.63ZM95.85 27.55L91.54 27.55L93.69 13.76L95.85 27.55Z" fill="#000000" fill-opacity="1.000000" fill-rule="evenodd"/>
		<path id="Vector" d="M107.95 27.91L107.95 21.24L116 21.24L116 32.06C114.74 34.86 113.9 37.02 112.21 38.37C111.11 39.27 109.32 40 107.69 40C105.69 40 104.06 39.36 102.79 38.1C101.53 36.75 100.74 35.04 100.06 32.51C99.38 29.9 99.22 26.92 99.22 23.58C99.22 20.07 99.48 16.91 100.27 14.39C101.01 11.77 102.11 9.88 103.58 8.53C104.74 7.45 105.95 7 107.9 7C109.79 7 111.16 7.27 112.11 7.9C113.05 8.53 113.79 9.52 114.42 10.87C115 12.23 115.47 13.94 115.79 16.01L111.37 17.72C111.16 16.46 110.84 15.56 110.32 14.93C109.84 14.3 109.21 13.85 108.48 13.67C106.95 13.31 105.74 14.75 105.06 16.19C104.37 17.72 104.06 20.07 104.06 23.41C104.06 26.83 104.37 29.81 105.06 31.34C105.74 32.78 106.74 33.59 107.95 33.59C108.53 33.59 109.11 33.41 109.63 33.05C110.16 32.78 110.74 32.24 111.42 31.43L111.42 27.91L107.95 27.91L107.95 27.91ZM122.47 14.66L120.1 14.66L120.1 31.79L122.47 31.79C126.89 31.79 127 14.66 122.47 14.66ZM121.79 7.63L116 7.63L116 38.82L121.79 38.82C132.63 38.82 132.84 7.63 121.79 7.63Z" fill="#000000" fill-opacity="1.000000" fill-rule="evenodd"/>
		<path id="Vector" d="M34.88 38.73L89.33 38.73L89.33 7.62L34.87 7.62L34.87 38.73L34.88 38.73ZM35.93 37.11L88.33 37.11L88.33 9.34L35.93 9.34L35.93 37.11L35.93 37.11Z" fill="#000000" fill-opacity="1.000000" fill-rule="evenodd"/>
		<path id="Vector" d="M47.92 31.16L38.77 31.16L38.77 15.11L47.66 15.11L47.66 18.27L41.24 18.27L41.24 21.51L47.19 21.51L47.19 23.77L41.24 23.77L41.24 28.45L47.92 28.45L47.92 31.16ZM72.75 31.16L69.97 31.16L69.91 26.83C69.91 24.58 68.28 24.67 67.23 24.67L65.49 24.67L65.49 31.16L62.6 31.16L62.6 15.11L69.12 15.11C73.39 15.11 74.39 21.06 71.23 23.22C72.02 23.67 72.7 25.03 72.7 26.74L72.75 31.16L72.75 31.16ZM65.39 22.23L68.12 22.23C68.86 22.23 69.44 22.05 69.76 21.78C70.07 21.42 70.28 20.88 70.28 20.16C70.28 18.81 69.6 18.08 68.28 18.08L65.39 18.08L65.39 22.23ZM80.28 14.84C81.12 14.84 81.91 15.02 82.59 15.47C83.33 15.83 83.96 16.37 84.49 17.09C85.01 17.81 85.38 18.72 85.7 19.71C85.96 20.79 86.12 21.87 86.12 23.14C86.12 24.31 86.01 25.48 85.7 26.47C85.43 27.46 85.01 28.36 84.49 29.09C83.96 29.81 83.33 30.44 82.65 30.8C81.91 31.16 81.12 31.43 80.28 31.43C79.44 31.43 78.59 31.16 77.91 30.8C77.17 30.44 76.54 29.81 76.07 29.09C75.54 28.36 75.12 27.55 74.86 26.47C74.54 25.48 74.39 24.4 74.39 23.14C74.39 21.87 74.54 20.7 74.86 19.71C75.12 18.72 75.54 17.81 76.07 17.09C76.6 16.37 77.23 15.83 77.91 15.47C78.65 15.02 79.44 14.84 80.28 14.84ZM80.28 28.54C80.75 28.54 81.23 28.45 81.7 28.18C82.12 27.91 82.49 27.55 82.8 27.1C83.12 26.65 83.33 26.11 83.54 25.39C83.7 24.76 83.8 23.95 83.8 23.14C83.8 22.23 83.7 21.51 83.54 20.79C83.33 20.16 83.12 19.62 82.8 19.17C82.49 18.72 82.12 18.36 81.7 18.09C81.23 17.81 80.8 17.72 80.28 17.72C79.8 17.72 79.33 17.81 78.86 18.08C78.44 18.36 78.07 18.72 77.75 19.17C77.44 19.62 77.17 20.16 77.02 20.88C76.86 21.51 76.75 22.23 76.75 23.14C76.75 23.95 76.86 24.76 77.02 25.39C77.17 26.11 77.44 26.65 77.75 27.1C78.07 27.55 78.44 27.91 78.86 28.18C79.28 28.45 79.75 28.54 80.28 28.54ZM50.61 15.11L52.97 15.11L52.97 26.47C53.08 29.63 57.71 29.54 57.6 26.47L57.6 15.11L60.18 15.11L60.13 26.74C60.18 32.69 50.66 32.69 50.61 26.74L50.61 15.11Z" fill="#000000" fill-opacity="1.000000" fill-rule="evenodd"/>
	</g>
</svg>
