<svg width="130.000000" height="47.000000" viewBox="0 0 130 47" fill="none" xmlns="http://www.w3.org/2000/svg" xmlns:xlink="http://www.w3.org/1999/xlink">
	<desc>
			Created with Pixso.
	</desc>
	<defs>
		<clipPath id="clip941_1003">
			<rect id="brand8" width="130.000000" height="47.000000" fill="white" fill-opacity="0"/>
		</clipPath>
	</defs>
	<g clip-path="url(#clip941_1003)">
		<path id="Vector" d="M66.97 39.87C71.51 39.87 74.54 35.28 74.54 27.55L74.54 7.75L69.57 7.75L69.57 27.23C69.57 30.84 68.74 32.62 67 32.62C65.32 32.62 64.6 30.79 64.6 27.23L64.6 7.75L59.6 7.75L59.6 27.55C59.61 35.45 62.37 39.87 66.97 39.87L66.97 39.87ZM81.91 22.34L81 22.34L81 14.83L82.31 14.83C84.51 14.83 85.57 15.9 85.57 18.52C85.56 21.36 84.37 22.34 81.91 22.34ZM87.85 9.48C86.48 7.98 84.85 7.75 82.71 7.75L75.97 7.75L75.97 39.37L80.94 39.37L80.94 29.19L82.37 29.19C84.48 29.19 86.08 28.97 87.37 27.77C89.39 25.86 90.59 22.48 90.59 18.39C90.59 14.42 89.65 11.44 87.85 9.48ZM118.06 21.76L125.63 39.38L130 39.38L130 7.75L125.04 7.75L125.04 25.32L117.58 7.75L113.1 7.75L113.1 39.38L118.06 39.38L118.06 21.76ZM47.9 32.13C45.1 32.13 42.56 28.3 42.56 23.32C42.56 18.7 44.93 15.01 47.96 15.01C50.81 15.01 53.19 18.7 53.19 23.32C53.18 28.47 50.81 32.13 47.9 32.13L47.9 32.13ZM55.18 11.85C53.21 8.82 50.64 7.18 47.92 7.18C45.04 7.18 42.53 8.74 40.53 11.8C38.53 14.87 37.44 18.88 37.44 23.24C37.44 27.91 38.42 31.82 40.32 34.98C42.32 38.27 44.89 39.96 47.89 39.96C50.72 39.96 53.4 38.23 55.37 35.03C57.28 31.96 58.31 27.91 58.31 23.38C58.32 19.05 57.24 15 55.18 11.85ZM101.7 32.13C98.9 32.13 96.36 28.3 96.36 23.32C96.36 18.7 98.74 15.01 101.76 15.01C104.62 15.01 106.99 18.7 106.99 23.32C106.98 28.47 104.61 32.13 101.7 32.13L101.7 32.13ZM108.98 11.85C107.01 8.82 104.44 7.18 101.73 7.18C98.84 7.18 96.33 8.74 94.33 11.8C92.34 14.87 91.24 18.88 91.24 23.24C91.24 27.91 92.22 31.82 94.13 34.98C96.13 38.27 98.7 39.96 101.69 39.96C104.52 39.96 107.2 38.23 109.17 35.03C111.09 31.96 112.12 27.91 112.12 23.38C112.12 19.05 111.04 15 108.98 11.85ZM2.87 34.97C4.87 38.26 7.41 40 10.41 40C13.87 40 17.12 37.32 19.06 32.92C20.23 30.25 20.8 27.22 20.8 23.67C20.8 23 20.78 22.29 20.75 21.57L9.18 21.57L9.18 27.89L14.98 27.89C13.98 30.64 12.3 32.16 10.41 32.16C7.61 32.16 5.1 28.29 5.1 23.26C5.1 18.72 7.44 14.95 10.41 14.95C12.01 14.95 13.32 15.97 14.58 18.01L20.23 18.01C18.61 11.25 14.81 7.11 10.47 7.11C7.59 7.11 5.08 8.71 3.08 11.78C1.08 14.85 0 18.86 0 23.22C-0.01 27.9 0.96 31.81 2.87 34.97L2.87 34.97ZM27.99 22.34L27.03 22.34L27.03 14.83L28.4 14.83C30.59 14.83 31.65 15.9 31.65 18.52C31.65 21.36 30.45 22.34 27.99 22.34ZM32.08 28.52C34.96 27.27 36.67 23.45 36.67 18.33C36.67 14.42 35.73 11.44 33.93 9.48C32.56 7.98 30.93 7.75 28.79 7.75L22.05 7.75L22.05 39.37L27.02 39.37L27.02 29.19L30.9 39.37L37.04 39.37L32.08 28.52Z" fill="#000000" fill-opacity="1.000000" fill-rule="evenodd"/>
	</g>
</svg>
